<svg width="822" height="171" viewBox="0 0 822 171" fill="none" xmlns="http://www.w3.org/2000/svg">
<g opacity="0.1">
<mask id="path-1-outside-1_73_152" maskUnits="userSpaceOnUse" x="-0.045166" y="-0.559998" width="822" height="172" fill="black">
<rect fill="white" x="-0.045166" y="-0.559998" width="822" height="172"/>
<path d="M117.155 164.44H146.195L88.8348 6.04H64.5948L1.47483 164.44H31.2348L42.5148 134.44H106.115L117.155 164.44ZM76.1148 47.32L95.7948 105.4H53.5548L76.1148 47.32ZM218.892 169.48C255.612 169.48 285.612 146.92 285.612 109V60.76C285.612 22.6 255.612 0.99999 218.892 0.99999C182.892 0.99999 152.412 22.6 152.412 60.76V109C152.412 146.92 182.412 169.48 218.892 169.48ZM218.892 141.4C199.692 141.4 182.412 129.16 182.412 106.84V62.68C182.412 40.6 199.932 29.08 218.892 29.08C239.772 29.08 255.612 40.6 255.612 62.68V106.84C255.612 129.16 240.012 141.4 218.892 141.4ZM458.32 6.04L418.48 118.12L381.28 6.04H351.04L404.32 164.44H432.16L488.56 6.04H458.32ZM531.554 6.04H501.554V164.44H531.554V6.04ZM651.755 6.04L611.915 118.12L574.715 6.04H544.475L597.755 164.44H625.595L681.995 6.04H651.755ZM753.689 169.48C790.409 169.48 820.409 146.92 820.409 109V60.76C820.409 22.6 790.409 0.99999 753.689 0.99999C717.689 0.99999 687.209 22.6 687.209 60.76V109C687.209 146.92 717.209 169.48 753.689 169.48ZM753.689 141.4C734.489 141.4 717.209 129.16 717.209 106.84V62.68C717.209 40.6 734.729 29.08 753.689 29.08C774.569 29.08 790.409 40.6 790.409 62.68V106.84C790.409 129.16 774.809 141.4 753.689 141.4Z"/>
</mask>
<path d="M117.155 164.44L116.216 164.785L116.457 165.44H117.155V164.44ZM146.195 164.44V165.44H147.621L147.135 164.1L146.195 164.44ZM88.8348 6.03999L89.7751 5.69951L89.5363 5.03999H88.8348V6.03999ZM64.5948 6.03999V5.03999H63.9168L63.6659 5.66982L64.5948 6.03999ZM1.47483 164.44L0.545873 164.07L-0.000121593 165.44H1.47483V164.44ZM31.2348 164.44V165.44H31.9272L32.1709 164.792L31.2348 164.44ZM42.5148 134.44V133.44H41.8225L41.5788 134.088L42.5148 134.44ZM106.115 134.44L107.053 134.095L106.812 133.44H106.115V134.44ZM76.1148 47.32L77.0619 46.9991L76.1789 44.3931L75.1827 46.9579L76.1148 47.32ZM95.7948 105.4V106.4H97.1895L96.7419 105.079L95.7948 105.4ZM53.5548 105.4L52.6227 105.038L52.0936 106.4H53.5548V105.4ZM117.155 165.44H146.195V163.44H117.155V165.44ZM147.135 164.1L89.7751 5.69951L87.8946 6.38048L145.255 164.78L147.135 164.1ZM88.8348 5.03999H64.5948V7.03999H88.8348V5.03999ZM63.6659 5.66982L0.545873 164.07L2.4038 164.81L65.5238 6.41017L63.6659 5.66982ZM1.47483 165.44H31.2348V163.44H1.47483V165.44ZM32.1709 164.792L43.4509 134.792L41.5788 134.088L30.2988 164.088L32.1709 164.792ZM42.5148 135.44H106.115V133.44H42.5148V135.44ZM105.176 134.785L116.216 164.785L118.093 164.095L107.053 134.095L105.176 134.785ZM75.1677 47.6409L94.8477 105.721L96.7419 105.079L77.0619 46.9991L75.1677 47.6409ZM95.7948 104.4H53.5548V106.4H95.7948V104.4ZM54.487 105.762L77.047 47.6821L75.1827 46.9579L52.6227 105.038L54.487 105.762ZM218.892 170.48C237.451 170.48 254.374 164.779 266.674 154.219C278.989 143.645 286.612 128.246 286.612 109H284.612C284.612 127.674 277.235 142.515 265.371 152.701C253.491 162.901 237.054 168.48 218.892 168.48V170.48ZM286.612 109V60.76H284.612V109H286.612ZM286.612 60.76C286.612 41.3939 278.989 26.1705 266.666 15.8047C254.362 5.45504 237.44 -7.62939e-06 218.892 -7.62939e-06V1.99999C237.064 1.99999 253.502 7.34495 265.379 17.3353C277.236 27.3095 284.612 41.9661 284.612 60.76H286.612ZM218.892 -7.62939e-06C200.701 -7.62939e-06 183.84 5.45705 171.51 15.804C159.16 26.1667 151.412 41.3888 151.412 60.76H153.412C153.412 41.9712 160.905 27.3132 172.795 17.336C184.704 7.34293 201.084 1.99999 218.892 1.99999V-7.62939e-06ZM151.412 60.76V109H153.412V60.76H151.412ZM151.412 109C151.412 128.246 159.035 143.644 171.32 154.218C183.589 164.778 200.452 170.48 218.892 170.48V168.48C200.852 168.48 184.475 162.902 172.625 152.702C160.79 142.516 153.412 127.674 153.412 109H151.412ZM218.892 140.4C209.497 140.4 200.621 137.405 194.109 131.736C187.614 126.082 183.412 117.72 183.412 106.84H181.412C181.412 118.28 185.851 127.198 192.796 133.244C199.723 139.275 209.087 142.4 218.892 142.4V140.4ZM183.412 106.84V62.68H181.412V106.84H183.412ZM183.412 62.68C183.412 51.9311 187.665 43.814 194.184 38.3674C200.724 32.9027 209.605 30.08 218.892 30.08V28.08C209.22 28.08 199.861 31.0173 192.901 36.8326C185.92 42.666 181.412 51.3489 181.412 62.68H183.412ZM218.892 30.08C229.158 30.08 238.086 32.9118 244.431 38.3588C250.756 43.788 254.612 51.8982 254.612 62.68H256.612C256.612 51.3818 252.549 42.692 245.734 36.8412C238.939 31.0082 229.507 28.08 218.892 28.08V30.08ZM254.612 62.68V106.84H256.612V62.68H254.612ZM254.612 106.84C254.612 117.752 250.808 126.108 244.506 131.745C238.189 137.395 229.265 140.4 218.892 140.4V142.4C229.639 142.4 239.076 139.285 245.839 133.235C252.617 127.173 256.612 118.248 256.612 106.84H254.612ZM458.32 6.03999V5.03999H457.615L457.378 5.70506L458.32 6.03999ZM418.48 118.12L417.531 118.435L418.448 121.197L419.423 118.455L418.48 118.12ZM381.28 6.03999L382.23 5.72499L382.002 5.03999H381.28V6.03999ZM351.04 6.03999V5.03999H349.649L350.093 6.35881L351.04 6.03999ZM404.32 164.44L403.373 164.759L403.602 165.44H404.32V164.44ZM432.16 164.44V165.44H432.866L433.103 164.775L432.16 164.44ZM488.56 6.03999L489.503 6.37543L489.978 5.03999H488.56V6.03999ZM457.378 5.70506L417.538 117.785L419.423 118.455L459.263 6.37492L457.378 5.70506ZM419.43 117.805L382.23 5.72499L380.331 6.355L417.531 118.435L419.43 117.805ZM381.28 5.03999H351.04V7.03999H381.28V5.03999ZM350.093 6.35881L403.373 164.759L405.268 164.121L351.988 5.72118L350.093 6.35881ZM404.32 165.44H432.16V163.44H404.32V165.44ZM433.103 164.775L489.503 6.37543L487.618 5.70457L431.218 164.105L433.103 164.775ZM488.56 5.03999H458.32V7.03999H488.56V5.03999ZM531.554 6.03999H532.554V5.03999H531.554V6.03999ZM501.554 6.03999V5.03999H500.554V6.03999H501.554ZM501.554 164.44H500.554V165.44H501.554V164.44ZM531.554 164.44V165.44H532.554V164.44H531.554ZM531.554 5.03999H501.554V7.03999H531.554V5.03999ZM500.554 6.03999V164.44H502.554V6.03999H500.554ZM501.554 165.44H531.554V163.44H501.554V165.44ZM532.554 164.44V6.03999H530.554V164.44H532.554ZM651.755 6.03999V5.03999H651.049L650.813 5.70506L651.755 6.03999ZM611.915 118.12L610.966 118.435L611.882 121.197L612.857 118.455L611.915 118.12ZM574.715 6.03999L575.664 5.72499L575.437 5.03999H574.715V6.03999ZM544.475 6.03999V5.03999H543.083L543.527 6.35881L544.475 6.03999ZM597.755 164.44L596.807 164.759L597.036 165.44H597.755V164.44ZM625.595 164.44V165.44H626.3L626.537 164.775L625.595 164.44ZM681.995 6.03999L682.937 6.37543L683.412 5.03999H681.995V6.03999ZM650.813 5.70506L610.973 117.785L612.857 118.455L652.697 6.37492L650.813 5.70506ZM612.864 117.805L575.664 5.72499L573.766 6.355L610.966 118.435L612.864 117.805ZM574.715 5.03999H544.475V7.03999H574.715V5.03999ZM543.527 6.35881L596.807 164.759L598.703 164.121L545.423 5.72118L543.527 6.35881ZM597.755 165.44H625.595V163.44H597.755V165.44ZM626.537 164.775L682.937 6.37543L681.053 5.70457L624.653 164.105L626.537 164.775ZM681.995 5.03999H651.755V7.03999H681.995V5.03999ZM753.689 170.48C772.248 170.48 789.171 164.779 801.471 154.219C813.786 143.645 821.409 128.246 821.409 109H819.409C819.409 127.674 812.032 142.515 800.168 152.701C788.288 162.901 771.851 168.48 753.689 168.48V170.48ZM821.409 109V60.76H819.409V109H821.409ZM821.409 60.76C821.409 41.3939 813.786 26.1705 801.463 15.8047C789.159 5.45504 772.237 -7.62939e-06 753.689 -7.62939e-06V1.99999C771.861 1.99999 788.299 7.34495 800.175 17.3353C812.033 27.3095 819.409 41.9661 819.409 60.76H821.409ZM753.689 -7.62939e-06C735.498 -7.62939e-06 718.637 5.45705 706.306 15.804C693.957 26.1667 686.209 41.3888 686.209 60.76H688.209C688.209 41.9712 695.702 27.3132 707.592 17.336C719.501 7.34293 735.881 1.99999 753.689 1.99999V-7.62939e-06ZM686.209 60.76V109H688.209V60.76H686.209ZM686.209 109C686.209 128.246 693.832 143.644 706.117 154.218C718.386 164.778 735.249 170.48 753.689 170.48V168.48C735.649 168.48 719.272 162.902 707.422 152.702C695.586 142.516 688.209 127.674 688.209 109H686.209ZM753.689 140.4C744.294 140.4 735.418 137.405 728.906 131.736C722.411 126.082 718.209 117.72 718.209 106.84H716.209C716.209 118.28 720.648 127.198 727.593 133.244C734.52 139.275 743.884 142.4 753.689 142.4V140.4ZM718.209 106.84V62.68H716.209V106.84H718.209ZM718.209 62.68C718.209 51.9311 722.462 43.814 728.98 38.3674C735.521 32.9027 744.401 30.08 753.689 30.08V28.08C744.017 28.08 734.658 31.0173 727.698 36.8326C720.717 42.666 716.209 51.3489 716.209 62.68H718.209ZM753.689 30.08C763.955 30.08 772.883 32.9118 779.228 38.3588C785.552 43.788 789.409 51.8982 789.409 62.68H791.409C791.409 51.3818 787.346 42.692 780.531 36.8412C773.736 31.0082 764.304 28.08 753.689 28.08V30.08ZM789.409 62.68V106.84H791.409V62.68H789.409ZM789.409 106.84C789.409 117.752 785.605 126.108 779.302 131.745C772.986 137.395 764.062 140.4 753.689 140.4V142.4C764.436 142.4 773.873 139.285 780.636 133.235C787.414 127.173 791.409 118.248 791.409 106.84H789.409Z" fill="white" mask="url(#path-1-outside-1_73_152)"/>
</g>
</svg>
