<svg width="168" height="46" viewBox="0 0 168 46" fill="none" xmlns="http://www.w3.org/2000/svg">
<path d="M31.1542 34.73C29.7659 36.0758 28.2501 35.8633 26.7909 35.2258C25.2467 34.5742 23.8301 34.5458 22.2009 35.2258C20.1609 36.1042 19.0842 35.8492 17.8659 34.73C10.9526 27.6042 11.9726 16.7525 19.8209 16.3558C21.7334 16.455 23.0651 17.4042 24.1842 17.4892C25.8559 17.1492 27.4567 16.1717 29.2417 16.2992C31.3809 16.4692 32.9959 17.3192 34.0584 18.8492C29.6384 21.4983 30.6867 27.3208 34.7384 28.95C33.9309 31.075 32.8826 33.1858 31.1401 34.7442L31.1542 34.73ZM24.0426 16.2708C23.8301 13.1117 26.3942 10.505 29.3409 10.25C29.7517 13.905 26.0259 16.625 24.0426 16.2708Z" fill="white"/>
<path d="M48.23 9.4H45.72V16H48.26C49.66 16 50.89 15.09 50.89 13.58V11.79C50.89 10.27 49.62 9.4 48.23 9.4ZM49.89 13.45C49.89 14.43 49.14 15.03 48.26 15.03H46.72V10.37H48.26C49.14 10.37 49.89 10.97 49.89 11.99V13.45ZM53.8332 16.2C55.0932 16.2 56.1232 15.54 56.1232 14.38V12.6C56.1232 11.44 55.0832 10.8 53.8332 10.8C52.6032 10.8 51.5632 11.44 51.5632 12.6V14.38C51.5632 15.54 52.5932 16.2 53.8332 16.2ZM53.8332 15.35C53.0532 15.35 52.5032 14.97 52.5032 14.32V12.67C52.5032 11.99 53.0632 11.65 53.8332 11.65C54.6232 11.65 55.1832 11.99 55.1832 12.67V14.32C55.1832 14.97 54.6332 15.35 53.8332 15.35ZM62.591 10.95L61.481 14.89L60.241 10.95H59.451L58.221 14.89L57.111 10.95H56.231L57.711 16H58.611L59.841 12.56L61.091 16H61.981L63.471 10.95H62.591ZM66.7582 10.8C66.1682 10.8 65.5182 10.92 64.7282 11.33L64.6082 10.95H63.6982L63.9282 11.77V16H64.8682V12.14C65.4082 11.81 66.0082 11.65 66.5182 11.65C67.1282 11.65 67.5482 12.02 67.5482 13.02V16H68.4882V12.97C68.4882 11.38 67.7882 10.8 66.7582 10.8ZM70.2355 9H69.2955V16H70.2355V9ZM73.2297 16.2C74.4897 16.2 75.5197 15.54 75.5197 14.38V12.6C75.5197 11.44 74.4797 10.8 73.2297 10.8C71.9997 10.8 70.9597 11.44 70.9597 12.6V14.38C70.9597 15.54 71.9897 16.2 73.2297 16.2ZM73.2297 15.35C72.4497 15.35 71.8997 14.97 71.8997 14.32V12.67C71.8997 11.99 72.4597 11.65 73.2297 11.65C74.0197 11.65 74.5797 11.99 74.5797 12.67V14.32C74.5797 14.97 74.0297 15.35 73.2297 15.35ZM80.4249 16L80.1949 15.19V12.67C80.1949 11.23 79.3149 10.8 78.1049 10.8C77.6849 10.8 77.0049 10.88 76.2749 11.11L76.4549 11.96C77.0049 11.74 77.7049 11.66 78.0649 11.67C78.7749 11.67 79.2549 11.89 79.2549 12.67V13.07C78.7749 13.01 78.2149 12.98 77.8849 12.98C76.5649 12.98 75.8849 13.43 75.8849 14.59C75.8849 15.66 76.5049 16.2 77.6049 16.2C78.1849 16.2 78.9049 16.03 79.4449 15.68L79.5749 16H80.4249ZM76.8349 14.61C76.8349 14 77.1349 13.73 78.0749 13.73C78.3549 13.73 78.7549 13.77 79.2549 13.84V15.05C78.7449 15.28 78.2249 15.4 77.7849 15.4C77.1649 15.4 76.8349 15.16 76.8349 14.61ZM85.5195 16L85.2895 15.19V9H84.3395V11.19C83.7895 10.96 83.2295 10.8 82.7895 10.8C81.6695 10.8 80.7995 11.54 80.7995 13V14.02C80.7995 15.07 81.3095 16.2 82.7095 16.2C83.2895 16.2 83.9095 16 84.4295 15.72L84.5495 16H85.5195ZM81.7395 13.96V13.13C81.7395 12.15 82.2195 11.7 82.9295 11.7C83.2895 11.7 83.8495 11.84 84.3395 12.03V14.85C83.9095 15.15 83.3095 15.3 82.8795 15.3C81.9695 15.3 81.7395 14.58 81.7395 13.96ZM89.3468 9H88.4068V10.14H89.3468V9ZM89.3468 10.95H88.4068V16H89.3468V10.95ZM93.141 10.8C92.551 10.8 91.901 10.92 91.111 11.33L90.991 10.95H90.081L90.311 11.77V16H91.251V12.14C91.791 11.81 92.391 11.65 92.901 11.65C93.511 11.65 93.931 12.02 93.931 13.02V16H94.871V12.97C94.871 11.38 94.171 10.8 93.141 10.8ZM100.694 15.21C100.444 15.31 100.164 15.35 99.9043 15.35C99.4643 15.35 99.1143 15.2 99.1143 14.71V11.8H100.634V10.95H99.1143V9.8H98.1743V10.95H97.3943V11.8H98.1743V14.88C98.1743 15.84 98.8043 16.2 99.5743 16.2C100.004 16.2 100.384 16.14 100.784 15.98L100.694 15.21ZM104.081 10.8C103.521 10.8 102.911 10.91 102.181 11.26V9H101.241V16H102.181V12.15C102.721 11.82 103.321 11.65 103.841 11.65C104.451 11.65 104.871 12.02 104.871 13.02V16H105.811V12.97C105.811 11.38 105.111 10.8 104.081 10.8ZM110.89 13.16C110.89 11.73 110.19 10.81 108.74 10.81C107.35 10.81 106.48 11.81 106.48 13.19V13.9C106.48 15.51 107.42 16.19 108.8 16.19C109.45 16.19 110.17 16.12 110.73 15.91L110.6 15.06C110.1 15.26 109.41 15.33 108.96 15.33C108 15.33 107.47 14.95 107.41 14.03H110.89V13.16ZM108.74 11.65C109.66 11.65 110.01 12.3 110.01 13.12V13.21H107.4V13.14C107.4 12.4 107.76 11.65 108.74 11.65Z" fill="white"/>
<path d="M53.08 33H55.016L51.192 22.44H49.576L45.368 33H47.352L48.104 31H52.344L53.08 33ZM50.344 25.192L51.656 29.064H48.84L50.344 25.192ZM59.9651 24.664C59.1971 24.664 58.3971 24.92 57.5171 25.32L57.3251 24.904H55.3891L55.8211 26.376V35.88H57.6931V32.76C58.4291 33.096 59.3091 33.336 60.0931 33.336C62.3011 33.336 63.2131 31.64 63.2131 30.104V28.152C63.2131 25.64 61.6931 24.664 59.9651 24.664ZM61.3251 29.688C61.3251 30.52 60.8931 31.544 59.6131 31.544C59.0691 31.544 58.2851 31.352 57.6931 31V26.92C58.3811 26.648 59.1491 26.456 59.6611 26.456C60.5891 26.456 61.3251 27.016 61.3251 28.568V29.688ZM68.462 24.664C67.694 24.664 66.894 24.92 66.014 25.32L65.822 24.904H63.886L64.318 26.376V35.88H66.19V32.76C66.926 33.096 67.806 33.336 68.59 33.336C70.798 33.336 71.71 31.64 71.71 30.104V28.152C71.71 25.64 70.19 24.664 68.462 24.664ZM69.822 29.688C69.822 30.52 69.39 31.544 68.11 31.544C67.566 31.544 66.782 31.352 66.19 31V26.92C66.878 26.648 67.646 26.456 68.158 26.456C69.086 26.456 69.822 27.016 69.822 28.568V29.688ZM74.5109 21.8H72.6389V33H74.5109V21.8ZM82.7219 28.472C82.7219 26.104 81.5859 24.68 79.2179 24.68C76.9619 24.68 75.4739 26.264 75.4739 28.536V29.544C75.4739 32.28 77.1059 33.32 79.2979 33.32C80.4979 33.32 81.6179 33.208 82.4979 32.904L82.2579 31.224C81.4899 31.496 80.4499 31.608 79.6499 31.608C78.3059 31.608 77.5379 31.176 77.3619 29.96H82.7219V28.472ZM79.2179 26.328C80.5299 26.328 80.9619 27.24 80.9619 28.376V28.456H77.3299V28.424C77.3299 27.448 77.7619 26.328 79.2179 26.328ZM90.4921 22.104C87.9161 22.104 86.7161 23.24 86.7161 25.128C86.7161 27.064 88.0121 27.784 89.8841 28.504C91.2121 28.968 92.2041 29.32 92.2041 30.248C92.2041 31.224 91.1801 31.4 90.1881 31.4C89.2441 31.4 88.2361 31.208 87.0841 30.808L86.6361 32.632C87.9001 33.096 89.1321 33.336 90.2681 33.336C92.6521 33.336 94.2041 32.248 94.2041 30.12C94.2041 28.424 93.2121 27.624 91.1001 26.808C89.2441 26.088 88.7321 25.896 88.7321 25.192C88.7321 24.408 89.3241 23.96 90.6041 23.96C91.3881 23.96 92.4761 24.152 93.2441 24.488L93.7241 22.648C92.8441 22.296 91.5481 22.104 90.4921 22.104ZM99.7694 31.464C99.4174 31.592 99.0014 31.64 98.6174 31.64C97.9454 31.64 97.3854 31.432 97.3854 30.648V26.584H99.6894V24.904H97.3854V23.016H95.4974V24.904H94.3614V26.584H95.4974V31C95.4974 32.712 96.6014 33.336 97.9454 33.336C98.6494 33.336 99.2734 33.24 99.9134 32.984L99.7694 31.464ZM103.752 33.336C105.832 33.336 107.512 32.248 107.512 30.344V27.64C107.512 25.72 105.816 24.664 103.752 24.664C101.704 24.664 100.008 25.72 100.008 27.64V30.344C100.008 32.248 101.688 33.336 103.752 33.336ZM103.752 31.656C102.6 31.656 101.896 31.128 101.896 30.216V27.768C101.896 26.792 102.616 26.344 103.752 26.344C104.904 26.344 105.624 26.792 105.624 27.768V30.216C105.624 31.128 104.92 31.656 103.752 31.656ZM112.561 24.776C112.033 24.776 111.121 24.984 110.257 25.64L109.985 24.904H108.177L108.609 26.376V33H110.481V27.256C111.249 26.616 111.921 26.456 112.577 26.456C113.009 26.456 113.393 26.488 113.809 26.616L113.825 24.936C113.393 24.776 113.025 24.776 112.561 24.776ZM120.906 28.472C120.906 26.104 119.77 24.68 117.402 24.68C115.146 24.68 113.658 26.264 113.658 28.536V29.544C113.658 32.28 115.29 33.32 117.482 33.32C118.682 33.32 119.802 33.208 120.682 32.904L120.442 31.224C119.674 31.496 118.634 31.608 117.834 31.608C116.49 31.608 115.722 31.176 115.546 29.96H120.906V28.472ZM117.402 26.328C118.714 26.328 119.146 27.24 119.146 28.376V28.456H115.514V28.424C115.514 27.448 115.946 26.328 117.402 26.328Z" fill="white"/>
<rect x="0.5" y="0.5" width="167" height="45" stroke="white" stroke-opacity="0.38"/>
</svg>
