<svg width="18" height="18" viewBox="0 0 18 18" fill="none" xmlns="http://www.w3.org/2000/svg">
<g opacity="0.8">
<path d="M2.4978 1.01135L2.4978 5.21678L5.42509 9.24948C6.14034 8.6513 7.00853 8.2303 7.96161 8.05452L2.4978 1.01135Z" fill="#2CFF28"/>
<path d="M12.4864 3.16273L14.9399 0L3.04785 0L5.50137 3.16273L12.4864 3.16273Z" fill="#2CFF28"/>
<path d="M15.5023 0.995361L10.019 8.06363C10.9548 8.24472 11.807 8.66238 12.5109 9.25191L15.5023 5.22121V0.995361Z" fill="#2CFF28"/>
<path d="M8.9664 15.7657C10.2207 15.7657 11.2411 14.7453 11.2411 13.491C11.2411 12.2368 10.2207 11.2163 8.9664 11.2163C7.7121 11.2163 6.69165 12.2368 6.69165 13.491C6.69165 14.7453 7.7121 15.7657 8.9664 15.7657ZM7.91213 12.4368H8.96644V13.4911H10.0207V14.5454H8.96644V13.4911H7.91213V12.4368Z" fill="#2CFF28"/>
<path d="M13.4755 13.491C13.4755 11.0047 11.4528 8.98199 8.96655 8.98199C6.48027 8.98199 4.45752 11.0047 4.45752 13.491C4.45752 15.9773 6.48023 18 8.96655 18C11.4528 18 13.4755 15.9773 13.4755 13.491ZM8.96652 10.162C10.8021 10.162 12.2955 11.6554 12.2955 13.491C12.2955 15.3267 10.8021 16.82 8.96652 16.82C7.13087 16.82 5.63747 15.3267 5.63747 13.491C5.63747 11.6554 7.13091 10.162 8.96652 10.162Z" fill="#2CFF28"/>
</g>
</svg>
