<svg width="154" height="36" viewBox="0 0 154 36" fill="none" xmlns="http://www.w3.org/2000/svg">
<path d="M85.3163 0.640204C85.9561 0.0643189 86.9159 -0.148972 87.7478 0.106977C88.0677 0.213622 88.345 0.405584 88.6436 0.597546C88.8782 0.746849 89.1555 0.810837 89.3688 0.981469C89.4754 1.06679 89.3901 1.21609 89.3901 1.32273C89.6674 1.98394 89.8167 2.70912 89.5821 3.41298C89.3901 3.6476 89.0488 3.71159 88.7716 3.81824C88.7289 4.11684 88.8356 4.39412 88.8782 4.69273C88.8142 4.73539 88.7716 4.77805 88.7076 4.8207C89.1128 4.79937 89.5181 4.71406 89.9233 4.62874C90.0726 4.47944 90.3073 4.56475 90.4992 4.54343C90.5205 4.24482 90.6272 3.96754 90.6272 3.66893C90.6698 3.66893 90.7552 3.6476 90.7978 3.62628C90.8192 3.83957 90.7978 4.05286 90.8618 4.26615C90.9685 4.35146 91.1391 4.30881 91.2671 4.33013C91.2671 4.41545 91.2671 4.50077 91.2884 4.58608C93.7626 4.56475 96.2581 4.58608 98.7322 4.58608C98.7322 4.71406 98.7322 4.84203 98.7322 4.94868C98.7962 4.94868 98.8815 4.94868 98.9669 4.94868C98.9669 4.47944 98.9669 4.03153 98.9669 3.56229C99.0308 3.56229 99.1802 3.56229 99.2441 3.56229C99.2441 3.94621 99.2228 4.30881 99.2441 4.69273C99.2655 4.71406 99.3081 4.73539 99.3508 4.73539C99.3508 4.77805 99.3721 4.86336 99.3721 4.90602C99.4574 4.8207 99.5641 4.75672 99.692 4.79937C99.7134 4.86336 99.7347 4.92735 99.756 5.01267C99.6707 5.09798 99.6281 5.20463 99.6707 5.3326C100.353 5.35393 101.036 5.3326 101.74 5.3326C101.804 5.24729 101.91 5.20463 102.017 5.16197C102.06 5.1833 102.124 5.22596 102.145 5.24729C102.486 5.24729 102.806 5.24729 103.147 5.24729C103.19 5.41792 103.19 5.58855 103.169 5.73785C102.827 5.73785 102.486 5.73785 102.145 5.73785C102.124 5.75918 102.06 5.82317 102.017 5.8445C101.91 5.78051 101.825 5.73785 101.718 5.67387C101.1 5.67387 100.481 5.67387 99.8627 5.67387C99.5001 5.78051 99.1162 5.75918 98.7536 5.6952C98.7536 5.82317 98.7536 5.97247 98.7536 6.10045C97.7298 6.10045 96.7273 6.10045 95.7035 6.10045C95.5755 6.20709 95.4476 6.27108 95.2769 6.29241C95.3409 6.61235 94.9783 6.69766 94.8504 6.93228C94.765 7.06026 94.6371 7.14557 94.5091 7.18823C94.4024 7.84943 94.6371 8.46798 94.8077 9.08652C94.6157 9.12918 94.4024 9.19316 94.2105 9.23582C94.1038 9.66241 93.9972 10.1103 93.9119 10.5369C93.8266 10.9208 93.5279 11.2408 93.1653 11.3901C92.9094 11.6887 92.5681 11.9873 92.1629 12.0086C92.0136 12.0513 91.9069 11.9446 91.8003 11.8593C91.2671 11.902 90.7765 11.646 90.3073 11.4327C89.7954 11.1981 89.3261 10.8995 88.8356 10.6222C88.8782 10.9208 88.7289 11.1768 88.6223 11.4327C88.8569 11.5394 89.1768 11.6247 89.3048 11.8806C89.3901 12.0726 89.4754 12.2859 89.4754 12.5205C89.4541 13.2883 89.3688 14.0562 89.3261 14.824C89.3474 15.3786 89.0702 15.9332 88.6862 16.3384C88.4303 16.3171 88.217 16.2104 87.9824 16.1038C87.8971 16.2957 87.7051 16.4877 87.8118 16.7223C87.8971 16.9996 87.8971 17.2982 88.025 17.5542C88.7502 18.322 89.3688 19.1752 89.8167 20.135C90.2646 21.0521 90.6059 22.0119 90.9685 22.9718C91.0324 22.9718 91.1604 22.9504 91.2244 22.9504C91.3097 23.2277 91.2244 23.5476 91.395 23.8036C91.5443 24.0382 91.5017 24.3155 91.5017 24.5928C91.459 25.2326 91.4164 25.8725 91.3524 26.5124C91.3097 26.9603 91.2031 27.4082 91.1391 27.8561C91.1604 28.1974 91.3097 28.5386 91.2884 28.8799C91.2671 29.1998 91.2671 29.5411 91.0111 29.7757C91.0324 30.5009 90.8405 31.2261 91.0964 31.93C91.4377 32.3992 91.8216 32.8471 92.2269 33.2524C92.6748 33.4657 93.208 33.5083 93.5919 33.8922C93.7412 34.1269 93.6559 34.4041 93.6133 34.6601C92.6961 34.7881 91.779 34.7881 90.8618 34.6601C90.4992 34.5748 90.158 34.4255 89.7954 34.3828C89.3048 34.4041 88.7289 34.5961 88.281 34.2548C88.2383 33.679 88.4516 33.1244 88.5583 32.5698C88.6009 32.3779 88.7929 32.2499 88.7716 32.0579C88.7289 31.3967 88.6862 30.7142 88.6436 30.053C88.5583 30.0103 88.409 29.9677 88.4303 29.8397C88.4303 29.5198 88.3237 29.1998 88.2383 28.9012C88.089 28.0907 88.025 27.2589 88.0037 26.4271C87.9824 26.1924 88.1317 26.0218 88.3023 25.8725C88.345 25.5099 88.3876 25.126 88.409 24.7634C88.345 24.5714 88.1957 24.4221 88.1104 24.2515C87.7264 24.2942 87.1719 24.3795 86.9373 23.9742C86.3827 23.1424 85.8068 22.2892 85.2523 21.4574C85.0176 21.4361 84.7404 21.4574 84.5271 21.3081C84.2925 21.0521 84.1431 20.7109 83.9938 20.3909C83.9299 20.6469 83.8872 20.9242 83.7379 21.1374C83.6099 21.3507 83.3966 21.5 83.2473 21.692C83.098 22.0333 82.9701 22.3745 82.8421 22.7158C82.6928 23.1424 82.4795 23.569 82.4368 24.0382C82.4155 24.2728 82.3728 24.4861 82.2875 24.6994C82.1809 24.87 81.9889 24.934 81.8183 25.0193C81.6903 25.2966 81.605 25.5739 81.413 25.8085C81.2851 25.9578 81.0718 26.0005 80.9865 26.1924C80.9011 26.4484 80.7732 26.683 80.6665 26.9176C80.6239 27.1736 80.7945 27.4509 80.7092 27.7068C80.5599 28.3467 80.2399 28.9439 79.9413 29.5198C79.792 29.9464 79.6854 30.3943 79.4721 30.7995C79.3868 30.9702 79.1735 31.0128 79.0028 31.0341C78.8109 31.5034 78.5976 31.9513 78.4696 32.4419C78.4056 32.9111 78.4056 33.4017 78.427 33.8709C78.427 34.0842 78.5549 34.2548 78.6403 34.4468C78.7256 34.7027 78.6616 34.9587 78.6189 35.2146C77.7871 35.3213 76.9339 35.4066 76.1234 35.1507C76.0381 35.0867 76.0594 34.98 76.0381 34.8947C75.9741 34.5108 75.9315 34.1055 76.0594 33.7429C76.3367 32.7405 76.5713 31.738 76.8486 30.7355C76.742 30.6289 76.5927 30.5436 76.5927 30.3729C76.5713 30.0957 76.5927 29.7971 76.6566 29.5198C76.7846 29.0505 77.1259 28.6879 77.2965 28.24C77.3605 28.0481 77.3392 27.8561 77.3605 27.6642C77.3605 27.2162 77.6165 26.8536 77.8084 26.4697C78.0004 26.1498 78.1497 25.8085 78.4056 25.5312C78.5763 25.3819 78.5763 25.1473 78.7042 24.9554C78.8322 24.7207 79.0455 24.5288 79.0455 24.2515C79.0882 23.9102 78.9602 23.569 79.0028 23.2277C79.0882 22.2252 79.2801 21.2441 79.4508 20.2416C79.3654 20.135 79.2375 20.0283 79.1948 19.879C79.2161 19.7724 79.2375 19.6871 79.2588 19.5804C79.1948 19.4738 79.1308 19.3671 79.0668 19.2605C79.1522 19.1325 79.2375 18.9832 79.3228 18.8552C79.2375 18.7913 79.1308 18.7059 79.0455 18.6419C79.1521 18.322 79.1095 17.8528 79.4934 17.7035C79.5361 17.7248 79.6427 17.7461 79.6854 17.7675C79.6214 17.2129 79.6214 16.637 79.5574 16.0825C79.4081 15.4852 79.3868 14.8667 79.4508 14.2695C79.664 13.9496 80.0693 13.8216 80.4319 13.8002C79.9627 13.6936 79.4934 13.6509 79.0455 13.5016C79.0242 13.1177 79.0882 12.7338 79.1521 12.3499C79.3441 11.6034 79.2588 10.8355 79.3654 10.0677C79.4721 9.85437 79.7494 9.81171 79.984 9.85437C80.2613 9.89702 80.5385 9.81171 80.8158 9.72639C80.8158 9.61975 80.8371 9.49177 80.8158 9.38513C80.6452 8.63861 80.6878 7.87076 80.8158 7.14557C80.9864 6.20709 81.3704 5.28994 82.0742 4.62874C82.5435 4.18083 83.226 3.96754 83.8659 3.98887C84.0792 3.98887 84.2071 4.20216 84.3778 4.33013C84.4631 4.24482 84.5484 4.1595 84.6124 4.07419C84.5057 3.71159 84.3351 3.32767 84.3564 2.94374C84.3991 2.09058 84.6764 1.21609 85.3163 0.640204ZM91.9709 6.67633C92.0136 6.71899 92.0136 6.71899 91.9709 6.67633V6.67633ZM92.2695 6.71899C92.2909 6.8683 92.3335 7.0176 92.2482 7.14557C92.1416 7.18823 92.0136 7.18823 91.9069 7.25222C92.2055 7.25222 92.5042 7.27355 92.8028 7.25222C93.0374 7.18823 92.9521 6.88962 92.9521 6.71899C92.8028 6.54836 92.4828 6.655 92.2695 6.71899ZM91.523 7.61481C91.7363 7.84943 91.8429 8.21203 92.0349 8.44665C92.3122 8.08405 92.5255 7.70013 92.8454 7.38019C92.4615 7.35886 92.0776 7.40152 91.6936 7.35886C91.6297 7.44418 91.587 7.5295 91.523 7.61481Z" fill="white"/>
<path d="M151.97 18.791C152.418 18.5991 152.994 18.855 153.122 19.3243C153.25 19.7508 153.015 20.2414 152.588 20.3694C152.183 20.5187 151.671 20.3267 151.522 19.9001C151.351 19.5162 151.543 18.9617 151.97 18.791ZM151.842 19.047C151.501 19.3456 151.543 19.9428 151.927 20.1774C152.162 20.3481 152.482 20.3054 152.738 20.1988C152.588 20.0281 152.46 19.8362 152.354 19.6442C152.311 19.6442 152.204 19.6442 152.162 19.6229C152.141 19.7935 152.226 20.0068 152.055 20.1134C151.991 19.7722 152.034 19.4309 152.013 19.0896C152.226 19.0896 152.503 19.0043 152.674 19.175C152.802 19.3456 152.674 19.5802 152.482 19.6442C152.567 19.7508 152.631 19.8788 152.716 19.9855L152.759 19.8788C152.759 19.9428 152.738 20.0708 152.716 20.1561C153.079 19.9428 153.122 19.3883 152.844 19.0896C152.588 18.8124 152.098 18.791 151.842 19.047ZM152.141 19.1963C152.141 19.3029 152.141 19.4309 152.141 19.5376C152.29 19.5162 152.588 19.5802 152.588 19.3456C152.546 19.1536 152.268 19.2176 152.141 19.1963Z" fill="white"/>
<path d="M0 20.8387C0.0213291 19.7722 0.981138 18.8551 2.02626 18.8337C3.83924 18.8337 5.67354 18.8337 7.50784 18.8337C8.55296 18.8337 9.49144 19.7509 9.55543 20.796C7.14524 20.796 4.75639 20.796 2.3462 20.796C2.3462 22.3957 2.3462 24.0167 2.3462 25.6164C4.75639 25.6164 7.14524 25.6164 9.55543 25.6164C9.51277 26.2989 9.12885 26.9601 8.53163 27.3014C8.16904 27.5147 7.76379 27.6 7.35853 27.6C5.56689 27.6 3.77525 27.6 2.00493 27.6C0.959809 27.5787 0.0213291 26.6402 0.0213291 25.5951C0 24.0167 0 22.4384 0 20.8387Z" fill="white"/>
<path d="M12.2429 18.9191C12.4775 18.8551 12.7334 18.8337 12.9894 18.8337C14.845 18.8337 16.6793 18.8337 18.535 18.8337C19.5801 18.8764 20.4759 19.7722 20.5186 20.8173C20.5186 22.3957 20.5186 23.9954 20.5186 25.5737C20.4972 26.6402 19.5374 27.6 18.471 27.6C16.5514 27.6 14.6317 27.6 12.7121 27.6C11.667 27.5787 10.7285 26.6402 10.7285 25.5951C10.7285 24.038 10.7285 22.481 10.7285 20.9027C10.6859 20.0068 11.3471 19.1537 12.2429 18.9191ZM12.8401 20.7534C12.8401 22.417 12.8401 24.0807 12.8401 25.7444C14.6744 25.7444 16.53 25.7444 18.3643 25.7444C18.3643 24.0807 18.3643 22.417 18.3643 20.7534C16.5087 20.7534 14.6744 20.7534 12.8401 20.7534Z" fill="white"/>
<path d="M22.1184 25.2751C22.1184 23.1209 22.1184 20.9666 22.1184 18.8337C22.7583 18.8551 23.4195 19.1323 23.8034 19.6656C24.0807 20.0282 24.23 20.4761 24.2513 20.924C24.2513 22.5237 24.2513 24.1447 24.2513 25.7444C26.0856 25.723 27.9199 25.7444 29.7756 25.7444C29.7756 23.4408 29.7756 21.1586 29.7756 18.8551C30.4794 18.8551 31.2046 18.8551 31.9085 18.8551C31.9085 21.116 31.9085 23.3555 31.9085 25.6164C31.8871 26.6828 30.97 27.6 29.9035 27.6427C28.0052 27.664 26.1069 27.6427 24.2087 27.6427C23.3768 27.6427 22.5663 27.1094 22.2464 26.3203C22.1397 25.979 22.1184 25.6377 22.1184 25.2751Z" fill="white"/>
<path d="M33.7212 18.8336C34.873 18.7483 36.0887 19.0682 36.9845 19.8361C38.6909 21.4571 40.4185 23.0567 42.1248 24.6564C42.1248 23.4407 42.1248 22.2036 42.1248 20.9878C42.1035 20.22 42.5301 19.4735 43.2126 19.0895C43.5326 18.8976 43.8952 18.8336 44.2578 18.8123C44.2791 21.7343 44.2578 24.6778 44.2578 27.5998C43.5752 27.5998 42.8927 27.5998 42.1888 27.5998C40.0773 25.5949 37.9657 23.59 35.8541 21.585C35.8541 23.59 35.8541 25.5949 35.8541 27.5998C35.1502 27.5998 34.4251 27.5998 33.7212 27.5998C33.7212 24.6991 33.7212 21.777 33.7212 18.8336Z" fill="white"/>
<path d="M44.9192 20.7534C44.9192 19.7723 45.7297 18.8125 46.7535 18.8551C49.4623 18.8551 52.1711 18.8551 54.8799 18.8551C54.8799 19.3457 54.6666 19.8363 54.3466 20.1989C53.984 20.5828 53.4508 20.7534 52.9389 20.7534C52.2777 20.7534 51.5952 20.7534 50.934 20.7534C50.934 23.0356 50.934 25.3392 50.934 27.6214C50.2088 27.6214 49.5049 27.6214 48.7798 27.6214C48.7798 25.3392 48.7798 23.0356 48.7798 20.7534C47.5 20.7534 46.2203 20.7534 44.9192 20.7534Z" fill="white"/>
<path d="M55.6262 18.8552C58.463 18.8552 61.2998 18.8552 64.1579 18.8552C64.1365 19.4738 63.8379 20.1136 63.326 20.4549C63.0061 20.6682 62.6008 20.7748 62.2169 20.7748C60.7452 20.7748 59.2522 20.7748 57.7805 20.7748C57.7805 21.2867 57.7805 21.7773 57.7805 22.2892C59.5721 22.2892 61.3637 22.2892 63.1767 22.2892C63.1767 23.0357 62.7288 23.7822 62.0249 24.0808C61.769 24.1875 61.4704 24.2302 61.1931 24.2302C60.0627 24.2302 58.9322 24.2302 57.8018 24.2302C57.8018 24.742 57.8018 25.2539 57.8018 25.7445C59.9347 25.7445 62.0676 25.7445 64.2218 25.7445C64.2218 26.7043 63.454 27.6215 62.4729 27.6428C60.1906 27.6428 57.9298 27.6428 55.6476 27.6428C55.6476 24.6994 55.6262 21.7773 55.6262 18.8552Z" fill="white"/>
<path d="M65.4804 18.8552C67.6133 18.8552 69.7462 18.8552 71.9005 18.8552C72.647 18.8766 73.4788 18.9619 74.0547 19.4951C74.6093 20.0497 74.6733 20.9028 74.6733 21.6493C74.6519 22.2892 74.6733 22.9504 74.4173 23.5263C74.076 24.1022 73.4788 24.5074 72.8176 24.6781C73.7561 25.7445 74.6733 26.8323 75.6117 27.8988C74.8439 27.8988 74.076 27.8988 73.3295 27.8988C73.0949 27.8988 72.8603 27.8988 72.6683 27.7921C72.4337 27.6641 72.2844 27.4295 72.1138 27.2376C70.962 25.8298 69.8316 24.4008 68.6798 22.9931C69.6396 22.9931 70.6207 22.9931 71.5805 22.9931C71.8578 22.9717 72.1564 22.9717 72.3697 22.7584C72.5404 22.4812 72.4977 22.1399 72.519 21.82C72.4977 21.5427 72.5404 21.2228 72.3484 20.9881C72.1351 20.8175 71.8365 20.7962 71.5805 20.7962C70.2581 20.7962 68.9571 20.7962 67.6347 20.7962C67.6347 23.0784 67.6347 25.3819 67.6347 27.6641C66.9095 27.6855 66.2056 27.6641 65.4804 27.6641C65.4591 24.6994 65.4804 21.7773 65.4804 18.8552Z" fill="white"/>
<path d="M95.0425 20.1135C95.3624 19.367 96.1302 18.8551 96.9408 18.8551C98.6897 18.8551 100.439 18.8551 102.166 18.8551C102.593 18.8337 103.041 18.8977 103.425 19.111C104.022 19.431 104.406 20.0708 104.513 20.732C102.017 20.7534 99.5002 20.732 97.0047 20.732C97.0047 21.2439 97.0047 21.7345 97.0047 22.2464C98.7111 22.2464 100.396 22.2464 102.102 22.2464C102.486 22.2464 102.892 22.2251 103.275 22.353C104.129 22.6303 104.726 23.5048 104.683 24.4006C104.662 25.0405 104.769 25.723 104.513 26.3416C104.193 27.0881 103.403 27.6213 102.593 27.6C100.695 27.6 98.7964 27.6 96.8768 27.6C95.853 27.5787 94.9358 26.7042 94.8718 25.7017C97.4313 25.7017 99.9695 25.7017 102.529 25.7017C102.529 25.1898 102.529 24.6566 102.529 24.1447C100.673 24.1447 98.7964 24.1447 96.9408 24.1447C95.8103 24.166 94.7865 23.1422 94.8505 22.0118C94.8932 21.3932 94.7652 20.7107 95.0425 20.1135Z" fill="white"/>
<path d="M106.261 18.9829C106.624 18.8123 107.029 18.855 107.392 18.855C109.781 18.855 112.17 18.855 114.537 18.855C114.537 19.6015 114.089 20.3693 113.343 20.6253C112.873 20.7959 112.383 20.7532 111.892 20.7532C111.53 20.7532 111.188 20.7532 110.826 20.7532C110.826 23.0355 110.826 25.339 110.826 27.6212C110.122 27.6212 109.397 27.6212 108.693 27.6212C108.693 25.339 108.693 23.0355 108.693 20.7532C107.499 20.7746 106.283 20.7532 105.088 20.7532C105.131 20.0067 105.558 19.2602 106.261 18.9829Z" fill="white"/>
<path d="M115.39 18.8552C117.523 18.8552 119.635 18.8552 121.768 18.8552C122.493 18.8766 123.303 18.9405 123.901 19.4311C124.498 19.9643 124.583 20.8175 124.583 21.564C124.562 22.2039 124.583 22.8864 124.349 23.505C124.007 24.1022 123.41 24.5074 122.749 24.6781C123.367 25.3606 123.986 26.0645 124.605 26.747C124.86 27.0456 125.138 27.3015 125.372 27.6428C124.583 27.6428 123.773 27.6428 122.984 27.6428C122.664 27.6428 122.322 27.5148 122.13 27.2589C120.957 25.8298 119.784 24.4221 118.611 22.9931C119.592 22.9931 120.573 22.9931 121.554 22.9931C121.853 22.9717 122.258 22.9504 122.344 22.6091C122.45 22.1399 122.45 21.6493 122.365 21.1801C122.301 20.8388 121.896 20.7962 121.618 20.7748C120.253 20.7748 118.91 20.7748 117.545 20.7748C117.545 23.0571 117.545 25.3606 117.545 27.6428C116.819 27.6428 116.116 27.6428 115.39 27.6428C115.39 24.6994 115.39 21.7773 115.39 18.8552Z" fill="white"/>
<path d="M126.972 18.8552C127.676 18.8552 128.401 18.8552 129.105 18.8552C129.126 21.7773 129.105 24.7207 129.105 27.6428C128.401 27.6428 127.676 27.6428 126.972 27.6428C126.972 24.6994 126.972 21.7773 126.972 18.8552Z" fill="white"/>
<path d="M131.515 18.8552C132.219 18.8552 132.944 18.8552 133.648 18.8552C133.648 19.9643 133.648 21.0734 133.648 22.2039C133.776 22.1826 133.925 22.2252 134.032 22.1186C135.418 21.0308 136.784 19.943 138.17 18.8552C139.215 18.8552 140.239 18.8552 141.284 18.8552C139.663 20.2843 138.021 21.692 136.378 23.121C138.298 24.6354 140.239 26.1284 142.137 27.6428C141.092 27.6428 140.068 27.6428 139.023 27.6428C138.746 27.6428 138.49 27.5575 138.277 27.3869C136.826 26.2991 135.376 25.19 133.947 24.1022C133.84 24.1022 133.733 24.1022 133.627 24.1022C133.627 25.2753 133.627 26.4697 133.627 27.6428C132.923 27.6215 132.198 27.6428 131.494 27.6428C131.515 24.6994 131.515 21.7773 131.515 18.8552Z" fill="white"/>
<path d="M142.35 18.8552C145.187 18.8552 148.045 18.8552 150.882 18.8552C150.861 19.3885 150.647 19.9003 150.263 20.2629C149.879 20.6042 149.368 20.7748 148.856 20.7535C147.405 20.7535 145.955 20.7535 144.483 20.7535C144.483 21.2654 144.483 21.756 144.483 22.2679C146.275 22.2679 148.088 22.2679 149.879 22.2679C149.858 23.0357 149.41 23.8036 148.664 24.0595C148.216 24.2515 147.725 24.1875 147.256 24.1875C146.339 24.1875 145.4 24.1875 144.483 24.1875C144.462 24.6994 144.462 25.2113 144.483 25.7019C146.616 25.7019 148.749 25.7019 150.882 25.7019C150.903 26.491 150.37 27.2802 149.602 27.5148C149.197 27.6428 148.77 27.6001 148.365 27.6001C146.339 27.6001 144.334 27.6001 142.308 27.6001C142.372 24.6994 142.35 21.7773 142.35 18.8552Z" fill="white"/>
<path d="M96.4928 30.9486C96.7061 30.6927 97.09 30.6927 97.4099 30.6713C97.8152 30.6713 98.2417 30.65 98.6257 30.7993C98.9243 30.9486 98.9243 31.3325 98.9456 31.6311C98.7536 31.6311 98.5404 31.6311 98.3484 31.6311C98.3057 31.4605 98.3057 31.2259 98.0924 31.2046C97.7725 31.1619 97.4312 31.1406 97.1113 31.2259C96.8554 31.3112 96.8767 31.6312 96.8554 31.8658C96.8767 32.2497 96.8127 32.6549 96.9193 33.0389C96.9833 33.2522 97.2393 33.2735 97.4312 33.2948C97.6872 33.2948 97.9858 33.3375 98.2204 33.2095C98.3911 33.0602 98.3484 32.7829 98.3697 32.5696C98.1138 32.5696 97.8365 32.5696 97.5805 32.5696C97.5805 32.4203 97.5805 32.271 97.5805 32.1217C98.0285 32.1217 98.4977 32.1217 98.9456 32.1217C98.9243 32.6123 99.0523 33.1668 98.7323 33.5721C98.3697 33.828 97.9005 33.7854 97.4952 33.8067C97.1113 33.7854 96.6207 33.7854 96.4074 33.4228C96.1942 32.9962 96.2368 32.4843 96.2581 32.0151C96.2795 31.6525 96.2368 31.2472 96.4928 30.9486Z" fill="white"/>
<path d="M100.289 30.6926C100.481 30.6926 100.695 30.6926 100.887 30.6926C100.887 31.5458 100.887 32.399 100.887 33.2521C101.377 33.2734 101.868 33.2521 102.337 33.2521C102.337 33.4227 102.337 33.6147 102.337 33.7853C101.654 33.7853 100.972 33.7853 100.289 33.7853C100.289 32.7615 100.289 31.7164 100.289 30.6926Z" fill="white"/>
<path d="M104.043 30.7353C104.598 30.6286 105.174 30.6073 105.707 30.7779C106.112 30.9272 106.133 31.4178 106.176 31.8017C106.176 32.3563 106.24 32.9535 106.006 33.4654C105.771 33.7853 105.323 33.7853 104.96 33.8067C104.534 33.8067 104.022 33.8493 103.681 33.5507C103.446 33.2521 103.446 32.8469 103.425 32.5056C103.425 32.0363 103.403 31.5671 103.574 31.1192C103.617 30.9059 103.83 30.7779 104.043 30.7353ZM104.363 31.2045C104.257 31.2258 104.107 31.2685 104.086 31.3965C104.001 31.8444 104.022 32.2923 104.022 32.7402C104.043 32.9322 104.043 33.2308 104.299 33.2521C104.662 33.2948 105.11 33.3801 105.451 33.1668C105.622 32.7402 105.558 32.2496 105.558 31.7804C105.536 31.5884 105.579 31.2898 105.344 31.2258C105.024 31.1405 104.683 31.1619 104.363 31.2045Z" fill="white"/>
<path d="M107.499 30.6926C108.074 30.6926 108.65 30.6926 109.226 30.6926C109.482 30.714 109.802 30.7779 109.887 31.0552C110.015 31.4391 109.994 32.0364 109.525 32.1857C110.101 32.3136 110.122 33.0602 109.909 33.4867C109.759 33.7427 109.418 33.7853 109.141 33.7853C108.586 33.7853 108.032 33.7853 107.499 33.7853C107.499 32.7615 107.499 31.7164 107.499 30.6926ZM108.096 31.1832C108.096 31.4391 108.096 31.7164 108.096 31.9724C108.416 31.9724 108.736 31.9937 109.056 31.951C109.461 31.951 109.439 31.2045 109.056 31.1832C108.736 31.1619 108.416 31.1832 108.096 31.1832ZM108.096 33.2948C108.458 33.2948 108.8 33.3161 109.162 33.2734C109.503 33.2308 109.461 32.7615 109.354 32.5269C108.97 32.335 108.522 32.4843 108.096 32.4203C108.096 32.7189 108.096 32.9962 108.096 33.2948Z" fill="white"/>
<path d="M112.127 30.6927C112.426 30.6714 112.724 30.6927 113.023 30.6927C113.364 31.7165 113.727 32.7616 114.068 33.7854C113.855 33.7854 113.663 33.7854 113.449 33.7854C113.385 33.5935 113.321 33.3802 113.258 33.1882C112.81 33.1882 112.362 33.1882 111.935 33.1882C111.871 33.3802 111.807 33.5935 111.743 33.7854C111.53 33.7854 111.317 33.7854 111.103 33.7854C111.445 32.7616 111.807 31.7378 112.127 30.6927ZM112.063 32.7616C112.404 32.7616 112.767 32.7616 113.108 32.7616C112.938 32.2497 112.767 31.7165 112.596 31.2046C112.383 31.6952 112.255 32.2284 112.063 32.7616Z" fill="white"/>
<path d="M115.262 30.6926C115.454 30.6926 115.668 30.6926 115.86 30.6926C115.86 31.5458 115.86 32.399 115.86 33.2521C116.35 33.2521 116.819 33.2521 117.31 33.2521C117.31 33.4227 117.31 33.6147 117.31 33.7853C116.628 33.7853 115.945 33.7853 115.262 33.7853C115.262 32.7615 115.262 31.7164 115.262 30.6926Z" fill="white"/>
<path d="M121.171 30.7139C121.704 30.6285 122.28 30.5859 122.792 30.7779C123.154 30.9058 123.218 31.3537 123.24 31.695C123.261 32.2496 123.304 32.8254 123.112 33.3587C123.005 33.6786 122.6 33.7426 122.301 33.7853C121.832 33.8066 121.341 33.8492 120.893 33.6573C120.573 33.508 120.509 33.1027 120.488 32.8041C120.446 32.2496 120.446 31.6737 120.595 31.1191C120.68 30.8845 120.936 30.7565 121.171 30.7139ZM121.405 31.2044C121.235 31.2258 121.128 31.3751 121.128 31.5457C121.085 32.0363 121.064 32.5695 121.149 33.0601C121.213 33.316 121.555 33.2947 121.768 33.316C122.024 33.2947 122.365 33.3587 122.557 33.1454C122.706 32.7188 122.642 32.2496 122.642 31.8016C122.621 31.6097 122.642 31.2897 122.408 31.2471C122.067 31.1404 121.725 31.1618 121.405 31.2044Z" fill="white"/>
<path d="M124.562 30.6926C125.244 30.6926 125.927 30.6926 126.609 30.6926C126.609 30.8633 126.609 31.0339 126.609 31.1832C126.119 31.1832 125.628 31.1832 125.138 31.1832C125.138 31.4605 125.138 31.7378 125.138 32.015C125.607 32.015 126.076 32.015 126.524 32.015C126.524 32.1857 126.524 32.3563 126.524 32.5269C126.055 32.5269 125.586 32.5269 125.138 32.5269C125.138 32.9535 125.138 33.3801 125.138 33.7853C124.946 33.7853 124.754 33.7853 124.541 33.7853C124.562 32.7615 124.583 31.7164 124.562 30.6926Z" fill="white"/>
<path d="M127.911 30.6926C128.593 30.6926 129.276 30.6926 129.98 30.6926C129.98 30.8633 129.98 31.0339 129.98 31.1832C129.489 31.1832 128.998 31.1832 128.508 31.1832C128.508 31.4605 128.508 31.7378 128.508 32.015C128.977 32.015 129.425 32.015 129.894 32.015C129.894 32.1857 129.894 32.3563 129.894 32.5269C129.425 32.5269 128.977 32.5269 128.508 32.5269C128.508 32.9535 128.508 33.3801 128.508 33.8067C128.316 33.8067 128.103 33.8067 127.911 33.8067C127.911 32.7615 127.911 31.7164 127.911 30.6926Z" fill="white"/>
<path d="M131.195 30.6926C131.899 30.6926 132.603 30.6926 133.307 30.6926C133.307 30.8633 133.307 31.0339 133.307 31.2045C132.795 31.2045 132.283 31.2045 131.771 31.2045C131.771 31.4605 131.771 31.7378 131.771 31.9937C132.262 31.9937 132.731 31.9937 133.222 31.9937C133.222 32.143 133.222 32.2923 133.222 32.4416C132.731 32.4416 132.24 32.4416 131.771 32.4416C131.771 32.7189 131.771 33.0175 131.771 33.2948C132.283 33.3161 132.795 33.2948 133.328 33.2948C133.328 33.4654 133.328 33.636 133.328 33.7853C132.624 33.7853 131.899 33.7853 131.195 33.7853C131.195 32.7615 131.195 31.7164 131.195 30.6926Z" fill="white"/>
<path d="M134.693 30.6926C135.034 30.6926 135.354 30.6926 135.696 30.6926C136.143 31.5245 136.549 32.3776 136.975 33.2308C136.975 32.3776 136.975 31.5458 136.975 30.6926C137.167 30.6926 137.381 30.6926 137.573 30.6926C137.573 31.7164 137.573 32.7615 137.573 33.7853C137.231 33.7853 136.911 33.7853 136.57 33.7853C136.122 32.9322 135.653 32.079 135.269 31.1832C135.29 32.0577 135.269 32.9109 135.29 33.7853C135.098 33.7853 134.885 33.7853 134.693 33.7853C134.693 32.7615 134.693 31.7164 134.693 30.6926Z" fill="white"/>
<path d="M139.023 31.0338C139.172 30.7352 139.556 30.6926 139.834 30.6712C140.239 30.6712 140.665 30.6286 141.049 30.7992C141.327 30.9485 141.327 31.3111 141.348 31.5884C141.156 31.6097 140.964 31.6097 140.751 31.5884C140.708 31.4391 140.729 31.1831 140.516 31.1618C140.239 31.1192 139.94 31.1192 139.684 31.1831C139.471 31.2685 139.492 31.5457 139.514 31.7164C139.535 31.951 139.812 31.9083 139.962 31.951C140.367 31.9936 140.836 31.951 141.199 32.1856C141.455 32.5055 141.391 32.9535 141.327 33.3374C141.263 33.6573 140.943 33.764 140.665 33.7853C140.196 33.8279 139.684 33.8493 139.236 33.7C138.895 33.5507 138.895 33.1241 138.874 32.8042C139.066 32.8042 139.258 32.8042 139.45 32.8042C139.471 32.9748 139.428 33.2307 139.642 33.2947C139.983 33.3587 140.324 33.38 140.665 33.2734C140.857 33.1241 140.836 32.8042 140.751 32.5909C140.473 32.4202 140.111 32.5055 139.791 32.4416C139.492 32.3989 139.087 32.3989 138.959 32.0576C138.895 31.7377 138.895 31.3538 139.023 31.0338Z" fill="white"/>
<path d="M142.756 30.6926C142.948 30.6926 143.161 30.6926 143.353 30.6926C143.353 31.7164 143.353 32.7615 143.353 33.7853C143.161 33.7853 142.948 33.7853 142.756 33.7853C142.756 32.7615 142.756 31.7164 142.756 30.6926Z" fill="white"/>
<path d="M144.526 30.6926C144.739 30.6926 144.931 30.6926 145.144 30.6926C145.422 31.5671 145.742 32.4203 145.976 33.2948C146.211 32.4203 146.531 31.5458 146.808 30.6926C147.021 30.6926 147.235 30.6926 147.448 30.6926C147.107 31.7164 146.787 32.7615 146.445 33.7853C146.147 33.7853 145.827 33.7853 145.528 33.7853C145.187 32.7615 144.867 31.7164 144.526 30.6926Z" fill="white"/>
<path d="M148.557 30.6926C149.261 30.6926 149.965 30.6926 150.69 30.6926C150.69 30.8633 150.69 31.0339 150.69 31.1832C150.178 31.1832 149.666 31.1832 149.154 31.1832C149.154 31.4391 149.154 31.7164 149.154 31.9724C149.645 31.9724 150.114 31.9724 150.605 31.9724C150.605 32.1217 150.605 32.271 150.605 32.4203C150.114 32.4203 149.624 32.4203 149.154 32.4203C149.154 32.6976 149.154 32.9962 149.154 33.2734C149.666 33.2948 150.178 33.2734 150.711 33.2734C150.711 33.4441 150.711 33.6147 150.711 33.764C150.008 33.764 149.282 33.764 148.578 33.764C148.557 32.7615 148.557 31.7164 148.557 30.6926Z" fill="white"/>
</svg>
