<svg width="47" height="46" viewBox="0 0 47 46" fill="none" xmlns="http://www.w3.org/2000/svg">
<rect x="0.5" y="0.5" width="46" height="45" stroke="white" stroke-opacity="0.38"/>
<path d="M33.7499 23.0655V22.9999C33.7489 21.553 33.4263 20.1244 32.8053 18.8175C32.1843 17.5106 31.2805 16.3582 30.1592 15.4436L30.103 15.3968L30.0374 15.3499C28.606 14.2188 26.886 13.512 25.073 13.3098C23.2599 13.1076 21.4265 13.4182 19.7811 14.2061L19.6592 14.2718C18.3292 14.9353 17.1677 15.893 16.2629 17.0723C15.3581 18.2516 14.7338 19.6215 14.4374 21.078V21.0968C14.077 22.8982 14.2345 24.7649 14.8916 26.4806C15.5486 28.1962 16.6784 29.6906 18.1499 30.7905L18.2717 30.8843H18.2811C19.5541 31.8073 21.0315 32.4087 22.5872 32.6372C24.1429 32.8657 25.7308 32.7146 27.2155 32.1968L27.3186 32.1593C29.1865 31.4804 30.8028 30.2479 31.9519 28.6265C33.1011 27.005 33.7283 25.0715 33.7499 23.0843V23.0655ZM32.2124 22.2686L31.4999 22.2499C30.1102 22.251 28.7266 22.4338 27.3842 22.7936C27.0553 21.823 26.6313 20.8872 26.1186 19.9999C27.453 19.1959 28.6601 18.1975 29.6999 17.0374C31.1461 18.4173 32.0394 20.2772 32.2124 22.2686ZM28.528 16.1093C27.5915 17.1381 26.5079 18.0227 25.3124 18.7343C24.3086 17.3274 23.0833 16.0926 21.6842 15.078C22.8317 14.7446 24.0378 14.6642 25.2193 14.8422C26.4009 15.0203 27.5298 15.4526 28.528 16.1093ZM20.0249 15.7718C21.5613 16.7358 22.9007 17.9829 23.9717 19.4468C22.0976 20.3043 20.0609 20.7487 17.9999 20.7499C17.3633 20.7485 16.7275 20.7047 16.0967 20.6186C16.7257 18.5535 18.1348 16.8148 20.0249 15.7718ZM15.7499 22.9999C15.7499 22.6905 15.7686 22.3905 15.7967 22.0999C16.5272 22.1968 17.2631 22.2469 17.9999 22.2499C20.3521 22.2532 22.675 21.7278 24.7967 20.7124C25.2642 21.519 25.6505 22.3701 25.9499 23.253C25.1545 23.5561 24.3835 23.9197 23.6436 24.3405C21.5876 25.5309 19.8255 27.1681 18.4874 29.1311C17.6263 28.3586 16.9375 27.4133 16.4658 26.357C15.9942 25.3006 15.7502 24.1568 15.7499 22.9999ZM19.6874 30.0311C21.3122 27.6122 23.6429 25.7529 26.3624 24.7061C26.5909 25.7374 26.7072 26.7904 26.7092 27.8468C26.7088 28.8712 26.5988 29.8926 26.3811 30.8936C25.6099 31.1319 24.8071 31.252 23.9999 31.2499C22.4775 31.2493 20.9849 30.8275 19.6874 30.0311ZM28.0405 30.1905C28.1533 29.4144 28.2097 28.6311 28.2092 27.8468C28.2085 26.6319 28.0701 25.4211 27.7967 24.2374C29.0048 23.9152 30.2496 23.7514 31.4999 23.7499L32.2124 23.7686C32.0871 25.0963 31.6422 26.374 30.9157 27.4923C30.1892 28.6106 29.2027 29.5364 28.0405 30.1905Z" fill="white"/>
</svg>
