<svg width="147" height="27" viewBox="0 0 147 27" fill="none" xmlns="http://www.w3.org/2000/svg">
<path d="M35.6781 20L33.1216 17.4435V10.1292L35.6781 7.57275H44.5014V9.82741H36.903L35.6958 11.0346V16.5381L36.903 17.7453H41.8029L43.0101 16.5381V14.6918H38.8026V12.6502H45.5844V17.4435L43.0279 20H35.6781ZM55.2506 7.57275L60.2215 19.2011V20H57.736L56.5998 17.2305H50.1731L49.0369 20H46.6225V19.2011L51.5757 7.57275H55.2506ZM51.0963 14.9758H55.6766L53.5818 9.82741H53.2089L51.0963 14.9758ZM62.2563 20V7.57275H66.3218L69.4996 15.1179H69.8724L73.0502 7.57275H77.0802V20H74.506V10.431H74.2575L71.0619 17.9761H68.2746L65.0791 10.431H64.8305V20H62.2563ZM80.4256 20V7.57275H91.1485V9.82741H82.9998V12.6679H89.1957V14.8161H82.9998V17.7453H91.3261V20H80.4256ZM96.9547 20V9.82741H92.2146V7.57275H104.269V9.82741H99.5289V20H96.9547ZM106.119 20V7.57275H115.191L117.499 9.88067V13.5378L115.351 15.686L117.89 19.2011V20H115.369L112.493 15.9168H108.693V20H106.119ZM108.693 13.7686H113.86L114.925 12.7034V10.7861L113.86 9.72089H108.693V13.7686ZM119.712 20V17.9584H122.198V9.61437H119.712V7.57275H127.257V9.61437H124.772V17.9584H127.257V20H119.712ZM129.888 20V7.57275H133.954L137.132 15.1179H137.505L140.682 7.57275H144.712V20H142.138V10.431H141.89L138.694 17.9761H135.907L132.711 10.431H132.463V20H129.888Z" fill="white"/>
<path d="M22.1915 24.4108H16.6436L11.0958 13.315L5.54788 24.4108H0V18.8629L11.0958 13.315L0 7.76712V2.21924H5.54788L11.0958 13.315L16.6436 2.21924H22.1915V7.76712L11.0958 13.315L22.1915 18.8629V24.4108Z" fill="white"/>
</svg>
