<svg width="47" height="46" viewBox="0 0 47 46" fill="none" xmlns="http://www.w3.org/2000/svg">
<rect x="0.5" y="0.5" width="46" height="45" stroke="white" stroke-opacity="0.38"/>
<path d="M24 13C22.6868 13 21.3864 13.2587 20.1732 13.7612C18.9599 14.2638 17.8575 15.0003 16.9289 15.9289C15.0536 17.8043 14 20.3478 14 23C14 27.42 16.87 31.17 20.84 32.5C21.34 32.58 21.5 32.27 21.5 32V30.31C18.73 30.91 18.14 28.97 18.14 28.97C17.68 27.81 17.03 27.5 17.03 27.5C16.12 26.88 17.1 26.9 17.1 26.9C18.1 26.97 18.63 27.93 18.63 27.93C19.5 29.45 20.97 29 21.54 28.76C21.63 28.11 21.89 27.67 22.17 27.42C19.95 27.17 17.62 26.31 17.62 22.5C17.62 21.39 18 20.5 18.65 19.79C18.55 19.54 18.2 18.5 18.75 17.15C18.75 17.15 19.59 16.88 21.5 18.17C22.29 17.95 23.15 17.84 24 17.84C24.85 17.84 25.71 17.95 26.5 18.17C28.41 16.88 29.25 17.15 29.25 17.15C29.8 18.5 29.45 19.54 29.35 19.79C30 20.5 30.38 21.39 30.38 22.5C30.38 26.32 28.04 27.16 25.81 27.41C26.17 27.72 26.5 28.33 26.5 29.26V32C26.5 32.27 26.66 32.59 27.17 32.5C31.14 31.16 34 27.42 34 23C34 21.6868 33.7413 20.3864 33.2388 19.1732C32.7362 17.9599 31.9997 16.8575 31.0711 15.9289C30.1425 15.0003 29.0401 14.2638 27.8268 13.7612C26.6136 13.2587 25.3132 13 24 13Z" fill="white"/>
</svg>
