<svg width="168" height="46" viewBox="0 0 168 46" fill="none" xmlns="http://www.w3.org/2000/svg">
<path d="M16.6501 35.7499C16.4093 35.7542 16.1684 35.7131 15.9418 35.6281L27.3516 24.214L31.1284 27.9951L18.0172 35.3618C17.6019 35.6053 17.1314 35.7389 16.6501 35.7499ZM15.0011 34.8079C14.7692 34.3878 14.6537 33.9134 14.6668 33.4337V12.6016C14.6649 12.2854 14.7127 11.9708 14.8084 11.6694L26.4718 23.3357L14.9968 34.8107L15.0011 34.8079ZM32.2547 27.359L28.2299 23.3371L32.6683 18.9001L36.6109 21.1144C37.3674 21.4544 37.8746 22.1839 37.9256 23.0113C37.9005 23.4177 37.7645 23.8095 37.5325 24.1441C37.3005 24.4788 36.9813 24.7435 36.6095 24.9096L32.2547 27.359ZM27.3516 22.4531L15.5366 10.6395C15.861 10.3987 16.2534 10.2712 16.6572 10.2698C17.1332 10.2868 17.5978 10.4214 18.0101 10.6622L31.5407 18.2669L27.3516 22.4531Z" fill="white"/>
<path d="M52.48 12.24V13.21H53.84V15.18C53.48 15.24 52.98 15.31 52.53 15.31C51.46 15.31 50.64 14.73 50.64 13.34V12.06C50.64 10.63 51.46 10.1 52.64 10.1C53.36 10.1 54.05 10.26 54.48 10.43L54.74 9.56C54.21 9.33 53.45 9.2 52.67 9.2C50.68 9.2 49.64 10.18 49.64 12V13.4C49.64 15.16 50.78 16.2 52.48 16.2C53.28 16.2 54.28 16.04 54.84 15.75V12.24H52.48ZM59.9737 13.16C59.9737 11.73 59.2737 10.81 57.8237 10.81C56.4337 10.81 55.5637 11.81 55.5637 13.19V13.9C55.5637 15.51 56.5037 16.19 57.8837 16.19C58.5337 16.19 59.2537 16.12 59.8137 15.91L59.6837 15.06C59.1837 15.26 58.4937 15.33 58.0437 15.33C57.0837 15.33 56.5537 14.95 56.4937 14.03H59.9737V13.16ZM57.8237 11.65C58.7437 11.65 59.0937 12.3 59.0937 13.12V13.21H56.4837V13.14C56.4837 12.4 56.8437 11.65 57.8237 11.65ZM63.5322 15.21C63.2822 15.31 63.0022 15.35 62.7422 15.35C62.3022 15.35 61.9522 15.2 61.9522 14.71V11.8H63.4722V10.95H61.9522V9.8H61.0122V10.95H60.2322V11.8H61.0122V14.88C61.0122 15.84 61.6422 16.2 62.4122 16.2C62.8422 16.2 63.2222 16.14 63.6222 15.98L63.5322 15.21ZM67.1847 9H66.2447V10.14H67.1847V9ZM67.1847 10.95H66.2447V16H67.1847V10.95ZM70.9789 10.8C70.3889 10.8 69.7389 10.92 68.9489 11.33L68.8289 10.95H67.9189L68.1489 11.77V16H69.0889V12.14C69.6289 11.81 70.2289 11.65 70.7389 11.65C71.3489 11.65 71.7689 12.02 71.7689 13.02V16H72.7089V12.97C72.7089 11.38 72.0089 10.8 70.9789 10.8ZM77.7922 16.2C79.0522 16.2 80.0822 15.54 80.0822 14.38V12.6C80.0822 11.44 79.0422 10.8 77.7922 10.8C76.5622 10.8 75.5222 11.44 75.5222 12.6V14.38C75.5222 15.54 76.5522 16.2 77.7922 16.2ZM77.7922 15.35C77.0122 15.35 76.4622 14.97 76.4622 14.32V12.67C76.4622 11.99 77.0222 11.65 77.7922 11.65C78.5822 11.65 79.1422 11.99 79.1422 12.67V14.32C79.1422 14.97 78.5922 15.35 77.7922 15.35ZM83.7074 10.8C83.1174 10.8 82.4674 10.92 81.6774 11.33L81.5574 10.95H80.6474L80.8774 11.77V16H81.8174V12.14C82.3574 11.81 82.9574 11.65 83.4674 11.65C84.0774 11.65 84.4974 12.02 84.4974 13.02V16H85.4374V12.97C85.4374 11.38 84.7374 10.8 83.7074 10.8Z" fill="white"/>
<path d="M54.392 26.904V28.84H56.472V31.416C55.944 31.496 55.336 31.576 54.728 31.576C53.192 31.576 51.928 30.808 51.928 28.648V26.808C51.928 24.584 53.192 23.896 54.888 23.896C56.024 23.896 57.048 24.152 57.784 24.408L58.28 22.664C57.352 22.296 56.2 22.104 54.952 22.104C51.624 22.104 49.928 23.688 49.928 26.664V28.792C49.928 31.672 51.832 33.336 54.616 33.336C55.896 33.336 57.416 33.096 58.472 32.568V26.904H54.392ZM63.1331 33.336C65.2131 33.336 66.8931 32.248 66.8931 30.344V27.64C66.8931 25.72 65.1971 24.664 63.1331 24.664C61.0851 24.664 59.3891 25.72 59.3891 27.64V30.344C59.3891 32.248 61.0691 33.336 63.1331 33.336ZM63.1331 31.656C61.9811 31.656 61.2771 31.128 61.2771 30.216V27.768C61.2771 26.792 61.9971 26.344 63.1331 26.344C64.2851 26.344 65.0051 26.792 65.0051 27.768V30.216C65.0051 31.128 64.3011 31.656 63.1331 31.656ZM71.3644 33.336C73.4444 33.336 75.1244 32.248 75.1244 30.344V27.64C75.1244 25.72 73.4284 24.664 71.3644 24.664C69.3164 24.664 67.6204 25.72 67.6204 27.64V30.344C67.6204 32.248 69.3004 33.336 71.3644 33.336ZM71.3644 31.656C70.2124 31.656 69.5084 31.128 69.5084 30.216V27.768C69.5084 26.792 70.2284 26.344 71.3644 26.344C72.5164 26.344 73.2364 26.792 73.2364 27.768V30.216C73.2364 31.128 72.5324 31.656 71.3644 31.656ZM81.7556 24.904L81.5476 25.336C80.6676 24.92 79.8676 24.664 79.0836 24.664C77.3716 24.664 75.8516 25.768 75.8516 28.296V29.832C75.8516 31.496 76.7476 33.336 78.9716 33.336C79.8036 33.336 80.6516 33.08 81.3716 32.712V33.368C81.3716 34.328 80.5556 34.6 79.5316 34.6C78.7316 34.6 77.4196 34.472 76.7956 34.136L76.3476 35.688C77.2916 36.072 78.6676 36.264 79.7876 36.264C81.4836 36.264 83.2436 35.72 83.2436 33.016V26.376L83.6756 24.904H81.7556ZM79.3236 31.544C78.0596 31.544 77.7396 30.52 77.7396 29.688V28.568C77.7396 27.016 78.4756 26.456 79.4036 26.456C79.9156 26.44 80.6836 26.632 81.3716 26.92V30.92C80.7476 31.336 79.8996 31.544 79.3236 31.544ZM86.4765 21.8H84.6045V33H86.4765V21.8ZM94.6875 28.472C94.6875 26.104 93.5515 24.68 91.1835 24.68C88.9275 24.68 87.4395 26.264 87.4395 28.536V29.544C87.4395 32.28 89.0715 33.32 91.2635 33.32C92.4635 33.32 93.5835 33.208 94.4635 32.904L94.2235 31.224C93.4555 31.496 92.4155 31.608 91.6155 31.608C90.2715 31.608 89.5035 31.176 89.3275 29.96H94.6875V28.472ZM91.1835 26.328C92.4955 26.328 92.9275 27.24 92.9275 28.376V28.456H89.2955V28.424C89.2955 27.448 89.7275 26.328 91.1835 26.328ZM103.77 22.44H99.0498V33H101.05V29.448H103.77C106.234 29.448 107.322 27.896 107.322 25.896C107.322 23.976 106.234 22.44 103.77 22.44ZM103.77 27.512H101.05V24.376H103.77C104.89 24.376 105.322 25.128 105.322 25.896C105.322 26.76 104.89 27.512 103.77 27.512ZM109.808 21.8H107.936V33H109.808V21.8ZM118.035 33L117.603 31.528V27.736C117.603 25.352 116.147 24.664 114.131 24.664C113.459 24.664 112.435 24.76 111.123 25.144L111.459 26.824C112.403 26.472 113.491 26.376 114.035 26.392C115.059 26.392 115.731 26.68 115.731 27.736V28.2C115.043 28.12 114.163 28.072 113.667 28.072C111.683 28.072 110.515 28.84 110.515 30.68C110.515 32.456 111.539 33.32 113.331 33.32C114.195 33.32 115.235 33.096 116.131 32.504L116.355 33H118.035ZM112.387 30.728C112.387 29.944 112.803 29.576 114.083 29.576C114.467 29.576 115.027 29.608 115.731 29.688V31.288C114.883 31.64 114.259 31.768 113.699 31.768C112.851 31.768 112.387 31.464 112.387 30.728ZM124.171 24.904L121.931 30.184L119.723 24.904H117.755L120.923 32.408C120.267 33.72 119.739 34.488 118.939 34.488C118.827 34.488 118.699 34.472 118.587 34.456L118.315 36.056C118.859 36.216 119.131 36.264 119.515 36.264C121.435 36.264 122.667 32.776 126.171 24.904H124.171Z" fill="white"/>
<rect x="0.5" y="0.5" width="167" height="45" stroke="white" stroke-opacity="0.38"/>
</svg>
