<svg width="47" height="46" viewBox="0 0 47 46" fill="none" xmlns="http://www.w3.org/2000/svg">
<rect x="0.5" y="0.5" width="46" height="45" stroke="white" stroke-opacity="0.38"/>
<path d="M14 14.4325C14 13.6413 14.6575 13 15.4688 13H32.5312C33.3425 13 34 13.6413 34 14.4325V31.5675C34 32.3587 33.3425 33 32.5312 33H15.4688C14.6575 33 14 32.3587 14 31.5675V14.4325ZM20.1788 29.7425V20.7113H17.1775V29.7425H20.1788ZM18.6788 19.4775C19.725 19.4775 20.3762 18.785 20.3762 17.9175C20.3575 17.0312 19.7263 16.3575 18.6988 16.3575C17.6713 16.3575 17 17.0325 17 17.9175C17 18.785 17.6512 19.4775 18.6588 19.4775H18.6788ZM24.8138 29.7425V24.6988C24.8138 24.4288 24.8337 24.1587 24.9137 23.9662C25.13 23.4275 25.6238 22.8687 26.4538 22.8687C27.54 22.8687 27.9738 23.6962 27.9738 24.9113V29.7425H30.975V24.5625C30.975 21.7875 29.495 20.4975 27.52 20.4975C25.9275 20.4975 25.2137 21.3725 24.8138 21.9888V22.02H24.7938C24.8004 22.0096 24.8071 21.9991 24.8138 21.9888V20.7113H21.8137C21.8512 21.5588 21.8137 29.7425 21.8137 29.7425H24.8138Z" fill="white"/>
</svg>
