<svg width="1022" height="171" viewBox="0 0 1022 171" fill="none" xmlns="http://www.w3.org/2000/svg">
<g opacity="0.1">
<mask id="path-1-outside-1_58_272" maskUnits="userSpaceOnUse" x="-0.0400391" y="-0.559937" width="1022" height="172" fill="black">
<rect fill="white" x="-0.0400391" y="-0.559937" width="1022" height="172"/>
<path d="M126.28 6.04006H0.999961V35.0801H48.76V164.44H78.76V35.0801H126.28V6.04006ZM198.038 169.48C234.758 169.48 264.758 146.92 264.758 109V60.7601C264.758 22.6001 234.758 1.00005 198.038 1.00005C162.038 1.00005 131.558 22.6001 131.558 60.7601V109C131.558 146.92 161.558 169.48 198.038 169.48ZM198.038 141.4C178.838 141.4 161.558 129.16 161.558 106.84V62.6801C161.558 40.6001 179.078 29.0801 198.038 29.0801C218.918 29.0801 234.758 40.6001 234.758 62.6801V106.84C234.758 129.16 219.158 141.4 198.038 141.4ZM382.094 164.44H416.894L377.054 102.52C397.694 95.0801 408.494 76.6001 408.494 55.7201C408.494 28.6001 392.174 6.04006 355.214 6.04006H286.094V164.44H316.094V107.32H345.854L382.094 164.44ZM316.094 35.0801H355.214C372.014 35.0801 378.494 45.6401 378.494 55.7201C378.494 67.4801 372.014 78.0401 355.214 78.0401H316.094V35.0801ZM525.797 6.04006V105.4L450.677 6.04006H430.037V164.44H459.077V65.0801L534.677 164.44H554.837V6.04006H525.797ZM607.966 135.4V97.9601H677.086V70.8401H607.966V35.0801H684.046V6.04006H577.966V164.44H686.206V135.4H607.966ZM737.378 6.04006H707.378V164.44H737.378V6.04006ZM825.179 169.48C861.899 169.48 891.899 146.92 891.899 109V60.7601C891.899 22.6001 861.899 1.00005 825.179 1.00005C789.179 1.00005 758.699 22.6001 758.699 60.7601V109C758.699 146.92 788.699 169.48 825.179 169.48ZM825.179 141.4C805.979 141.4 788.699 129.16 788.699 106.84V62.6801C788.699 40.6001 806.219 29.0801 825.179 29.0801C846.059 29.0801 861.899 40.6001 861.899 62.6801V106.84C861.899 129.16 846.299 141.4 825.179 141.4ZM964.354 1.00005C925.714 1.00005 907.714 18.0401 907.714 46.3601C907.714 75.4001 927.154 86.2001 955.234 97.0001C975.154 103.96 990.034 109.24 990.034 123.16C990.034 137.8 974.674 140.44 959.794 140.44C945.634 140.44 930.514 137.56 913.234 131.56L906.514 158.92C925.474 165.88 943.954 169.48 960.994 169.48C996.754 169.48 1020.03 153.16 1020.03 121.24C1020.03 95.8001 1005.15 83.8001 973.474 71.5601C945.634 60.7601 937.954 57.8801 937.954 47.3201C937.954 35.5601 946.834 28.8401 966.034 28.8401C977.794 28.8401 994.114 31.7201 1005.63 36.7601L1012.83 9.16006C999.634 3.88006 980.194 1.00005 964.354 1.00005Z"/>
</mask>
<path d="M126.28 6.04005H127.28V5.04005H126.28V6.04005ZM0.999961 6.04005V5.04005H-3.86238e-05V6.04005H0.999961ZM0.999961 35.08H-3.86238e-05V36.08H0.999961V35.08ZM48.76 35.08H49.76V34.08H48.76V35.08ZM48.76 164.44H47.76V165.44H48.76V164.44ZM78.76 164.44V165.44H79.76V164.44H78.76ZM78.76 35.08V34.08H77.76V35.08H78.76ZM126.28 35.08V36.08H127.28V35.08H126.28ZM126.28 5.04005H0.999961V7.04005H126.28V5.04005ZM-3.86238e-05 6.04005V35.08H1.99996V6.04005H-3.86238e-05ZM0.999961 36.08H48.76V34.08H0.999961V36.08ZM47.76 35.08V164.44H49.76V35.08H47.76ZM48.76 165.44H78.76V163.44H48.76V165.44ZM79.76 164.44V35.08H77.76V164.44H79.76ZM78.76 36.08H126.28V34.08H78.76V36.08ZM127.28 35.08V6.04005H125.28V35.08H127.28ZM198.038 170.48C216.597 170.48 233.52 164.779 245.82 154.219C258.135 143.645 265.758 128.246 265.758 109H263.758C263.758 127.674 256.381 142.515 244.517 152.701C232.637 162.901 216.2 168.48 198.038 168.48V170.48ZM265.758 109V60.7601H263.758V109H265.758ZM265.758 60.7601C265.758 41.394 258.135 26.1706 245.812 15.8048C233.508 5.4551 216.586 5.34058e-05 198.038 5.34058e-05V2.00005C216.21 2.00005 232.648 7.34501 244.524 17.3353C256.382 27.3096 263.758 41.9662 263.758 60.7601H265.758ZM198.038 5.34058e-05C179.846 5.34058e-05 162.986 5.45712 150.655 15.804C138.306 26.1668 130.558 41.3888 130.558 60.7601H132.558C132.558 41.9713 140.051 27.3133 151.941 17.3361C163.85 7.34299 180.23 2.00005 198.038 2.00005V5.34058e-05ZM130.558 60.7601V109H132.558V60.7601H130.558ZM130.558 109C130.558 128.246 138.181 143.644 150.466 154.218C162.735 164.778 179.598 170.48 198.038 170.48V168.48C179.998 168.48 163.621 162.902 151.77 152.702C139.935 142.516 132.558 127.674 132.558 109H130.558ZM198.038 140.4C188.643 140.4 179.767 137.405 173.255 131.736C166.76 126.082 162.558 117.72 162.558 106.84H160.558C160.558 118.28 164.997 127.199 171.941 133.244C178.869 139.275 188.233 142.4 198.038 142.4V140.4ZM162.558 106.84V62.6801H160.558V106.84H162.558ZM162.558 62.6801C162.558 51.9311 166.811 43.8141 173.329 38.3674C179.869 32.9027 188.75 30.0801 198.038 30.0801V28.0801C188.366 28.0801 179.007 31.0174 172.047 36.8327C165.066 42.666 160.558 51.349 160.558 62.6801H162.558ZM198.038 30.0801C208.304 30.0801 217.232 32.9119 223.577 38.3588C229.901 43.7881 233.758 51.8983 233.758 62.6801H235.758C235.758 51.3818 231.695 42.692 224.879 36.8413C218.085 31.0082 208.653 28.0801 198.038 28.0801V30.0801ZM233.758 62.6801V106.84H235.758V62.6801H233.758ZM233.758 106.84C233.758 117.752 229.953 126.108 223.651 131.745C217.334 137.395 208.411 140.4 198.038 140.4V142.4C208.785 142.4 218.222 139.285 224.985 133.235C231.763 127.173 235.758 118.248 235.758 106.84H233.758ZM382.094 164.44L381.249 164.976L381.544 165.44H382.094V164.44ZM416.894 164.44V165.44H418.726L417.735 163.899L416.894 164.44ZM377.054 102.52L376.715 101.579L375.533 102.005L376.213 103.061L377.054 102.52ZM286.094 6.04005V5.04005H285.094V6.04005H286.094ZM286.094 164.44H285.094V165.44H286.094V164.44ZM316.094 164.44V165.44H317.094V164.44H316.094ZM316.094 107.32V106.32H315.094V107.32H316.094ZM345.854 107.32L346.698 106.784L346.404 106.32H345.854V107.32ZM316.094 35.08V34.08H315.094V35.08H316.094ZM316.094 78.0401H315.094V79.0401H316.094V78.0401ZM382.094 165.44H416.894V163.44H382.094V165.44ZM417.735 163.899L377.895 101.979L376.213 103.061L416.053 164.981L417.735 163.899ZM377.393 103.461C398.486 95.8574 409.494 76.9578 409.494 55.7201H407.494C407.494 76.2423 396.901 94.3027 376.715 101.579L377.393 103.461ZM409.494 55.7201C409.494 41.9646 405.353 29.2737 396.434 20.0162C387.506 10.7497 373.903 5.04005 355.214 5.04005V7.04005C373.485 7.04005 386.521 12.6104 394.994 21.4039C403.474 30.2065 407.494 42.3556 407.494 55.7201H409.494ZM355.214 5.04005H286.094V7.04005H355.214V5.04005ZM285.094 6.04005V164.44H287.094V6.04005H285.094ZM286.094 165.44H316.094V163.44H286.094V165.44ZM317.094 164.44V107.32H315.094V164.44H317.094ZM316.094 108.32H345.854V106.32H316.094V108.32ZM345.009 107.856L381.249 164.976L382.938 163.904L346.698 106.784L345.009 107.856ZM316.094 36.08H355.214V34.08H316.094V36.08ZM355.214 36.08C363.394 36.08 368.933 38.6441 372.43 42.3103C375.94 45.9903 377.494 50.886 377.494 55.7201H379.494C379.494 50.4741 377.807 45.0498 373.877 40.9298C369.934 36.796 363.833 34.08 355.214 34.08V36.08ZM377.494 55.7201C377.494 61.4279 375.921 66.7423 372.412 70.619C368.92 74.4771 363.394 77.0401 355.214 77.0401V79.0401C363.833 79.0401 369.947 76.3231 373.895 71.9611C377.826 67.6178 379.494 61.7722 379.494 55.7201H377.494ZM355.214 77.0401H316.094V79.0401H355.214V77.0401ZM317.094 78.0401V35.08H315.094V78.0401H317.094ZM525.797 6.04005V5.04005H524.797V6.04005H525.797ZM525.797 105.4L525 106.003L526.797 108.381V105.4H525.797ZM450.677 6.04005L451.475 5.43698L451.175 5.04005H450.677V6.04005ZM430.037 6.04005V5.04005H429.037V6.04005H430.037ZM430.037 164.44H429.037V165.44H430.037V164.44ZM459.077 164.44V165.44H460.077V164.44H459.077ZM459.077 65.08L459.873 64.4745L458.077 62.1143V65.08H459.077ZM534.677 164.44L533.882 165.046L534.182 165.44H534.677V164.44ZM554.837 164.44V165.44H555.837V164.44H554.837ZM554.837 6.04005H555.837V5.04005H554.837V6.04005ZM524.797 6.04005V105.4H526.797V6.04005H524.797ZM526.595 104.797L451.475 5.43698L449.88 6.64314L525 106.003L526.595 104.797ZM450.677 5.04005H430.037V7.04005H450.677V5.04005ZM429.037 6.04005V164.44H431.037V6.04005H429.037ZM430.037 165.44H459.077V163.44H430.037V165.44ZM460.077 164.44V65.08H458.077V164.44H460.077ZM458.282 65.6856L533.882 165.046L535.473 163.835L459.873 64.4745L458.282 65.6856ZM534.677 165.44H554.837V163.44H534.677V165.44ZM555.837 164.44V6.04005H553.837V164.44H555.837ZM554.837 5.04005H525.797V7.04005H554.837V5.04005ZM607.966 135.4H606.966V136.4H607.966V135.4ZM607.966 97.9601V96.9601H606.966V97.9601H607.966ZM677.086 97.9601V98.9601H678.086V97.9601H677.086ZM677.086 70.8401H678.086V69.8401H677.086V70.8401ZM607.966 70.8401H606.966V71.8401H607.966V70.8401ZM607.966 35.08V34.08H606.966V35.08H607.966ZM684.046 35.08V36.08H685.046V35.08H684.046ZM684.046 6.04005H685.046V5.04005H684.046V6.04005ZM577.966 6.04005V5.04005H576.966V6.04005H577.966ZM577.966 164.44H576.966V165.44H577.966V164.44ZM686.206 164.44V165.44H687.206V164.44H686.206ZM686.206 135.4H687.206V134.4H686.206V135.4ZM608.966 135.4V97.9601H606.966V135.4H608.966ZM607.966 98.9601H677.086V96.9601H607.966V98.9601ZM678.086 97.9601V70.8401H676.086V97.9601H678.086ZM677.086 69.8401H607.966V71.8401H677.086V69.8401ZM608.966 70.8401V35.08H606.966V70.8401H608.966ZM607.966 36.08H684.046V34.08H607.966V36.08ZM685.046 35.08V6.04005H683.046V35.08H685.046ZM684.046 5.04005H577.966V7.04005H684.046V5.04005ZM576.966 6.04005V164.44H578.966V6.04005H576.966ZM577.966 165.44H686.206V163.44H577.966V165.44ZM687.206 164.44V135.4H685.206V164.44H687.206ZM686.206 134.4H607.966V136.4H686.206V134.4ZM737.378 6.04005H738.378V5.04005H737.378V6.04005ZM707.378 6.04005V5.04005H706.378V6.04005H707.378ZM707.378 164.44H706.378V165.44H707.378V164.44ZM737.378 164.44V165.44H738.378V164.44H737.378ZM737.378 5.04005H707.378V7.04005H737.378V5.04005ZM706.378 6.04005V164.44H708.378V6.04005H706.378ZM707.378 165.44H737.378V163.44H707.378V165.44ZM738.378 164.44V6.04005H736.378V164.44H738.378ZM825.179 170.48C843.737 170.48 860.66 164.779 872.96 154.219C885.276 143.645 892.899 128.246 892.899 109H890.899C890.899 127.674 883.522 142.515 871.657 152.701C859.777 162.901 843.34 168.48 825.179 168.48V170.48ZM892.899 109V60.7601H890.899V109H892.899ZM892.899 60.7601C892.899 41.394 885.275 26.1706 872.952 15.8048C860.649 5.4551 843.727 5.34058e-05 825.179 5.34058e-05V2.00005C843.351 2.00005 859.789 7.34501 871.665 17.3353C883.522 27.3096 890.899 41.9662 890.899 60.7601H892.899ZM825.179 5.34058e-05C806.987 5.34058e-05 790.127 5.45712 777.796 15.804C765.446 26.1668 757.699 41.3888 757.699 60.7601H759.699C759.699 41.9713 767.191 27.3133 779.081 17.3361C790.991 7.34299 807.37 2.00005 825.179 2.00005V5.34058e-05ZM757.699 60.7601V109H759.699V60.7601H757.699ZM757.699 109C757.699 128.246 765.321 143.644 777.606 154.218C789.876 164.778 806.739 170.48 825.179 170.48V168.48C807.139 168.48 790.762 162.902 778.911 152.702C767.076 142.516 759.699 127.674 759.699 109H757.699ZM825.179 140.4C815.784 140.4 806.908 137.405 800.395 131.736C793.9 126.082 789.699 117.72 789.699 106.84H787.699C787.699 118.28 792.137 127.199 799.082 133.244C806.01 139.275 815.374 142.4 825.179 142.4V140.4ZM789.699 106.84V62.6801H787.699V106.84H789.699ZM789.699 62.6801C789.699 51.9311 793.951 43.8141 800.47 38.3674C807.01 32.9027 815.891 30.0801 825.179 30.0801V28.0801C815.506 28.0801 806.147 31.0174 799.188 36.8327C792.206 42.666 787.699 51.349 787.699 62.6801H789.699ZM825.179 30.0801C835.444 30.0801 844.372 32.9119 850.717 38.3588C857.042 43.7881 860.899 51.8983 860.899 62.6801H862.899C862.899 51.3818 858.836 42.692 852.02 36.8413C845.225 31.0082 835.793 28.0801 825.179 28.0801V30.0801ZM860.899 62.6801V106.84H862.899V62.6801H860.899ZM860.899 106.84C860.899 117.752 857.094 126.108 850.792 131.745C844.475 137.395 835.552 140.4 825.179 140.4V142.4C835.926 142.4 845.362 139.285 852.125 133.235C858.903 127.173 862.899 118.248 862.899 106.84H860.899ZM955.234 97.0001L954.875 97.9334L954.89 97.939L954.904 97.9441L955.234 97.0001ZM913.234 131.56L913.562 130.615L912.525 130.255L912.263 131.322L913.234 131.56ZM906.514 158.92L905.543 158.682L905.33 159.55L906.17 159.859L906.514 158.92ZM973.474 71.5601L973.113 72.4924L973.114 72.4929L973.474 71.5601ZM1005.63 36.7601L1005.23 37.6762L1006.31 38.1456L1006.6 37.0125L1005.63 36.7601ZM1012.83 9.16006L1013.8 9.41248L1014.02 8.55912L1013.21 8.23158L1012.83 9.16006ZM964.354 5.34058e-05C944.907 5.34058e-05 930.481 4.28557 920.903 12.2928C911.295 20.3255 906.714 31.9774 906.714 46.3601H908.714C908.714 32.4227 913.134 21.3946 922.186 13.8273C931.268 6.23454 945.161 2.00005 964.354 2.00005V5.34058e-05ZM906.714 46.3601C906.714 61.1477 911.683 71.3792 920.268 79.2569C928.792 87.0782 940.836 92.5338 954.875 97.9334L955.593 96.0667C941.552 90.6664 929.836 85.3219 921.62 77.7832C913.466 70.3009 908.714 60.6124 908.714 46.3601H906.714ZM954.904 97.9441C964.902 101.437 973.478 104.46 979.57 108.315C985.607 112.136 989.034 116.661 989.034 123.16H991.034C991.034 115.739 987.022 110.665 980.639 106.625C974.311 102.62 965.486 99.5228 955.564 96.056L954.904 97.9441ZM989.034 123.16C989.034 126.635 988.127 129.333 986.592 131.449C985.051 133.575 982.828 135.179 980.094 136.374C974.595 138.776 967.211 139.44 959.794 139.44V141.44C967.257 141.44 974.994 140.784 980.895 138.206C983.861 136.911 986.408 135.111 988.211 132.623C990.022 130.127 991.034 127.005 991.034 123.16H989.034ZM959.794 139.44C945.773 139.44 930.766 136.589 913.562 130.615L912.906 132.505C930.263 138.531 945.496 141.44 959.794 141.44V139.44ZM912.263 131.322L905.543 158.682L907.485 159.159L914.206 131.799L912.263 131.322ZM906.17 159.859C925.219 166.852 943.816 170.48 960.994 170.48V168.48C944.092 168.48 925.73 164.908 906.859 157.981L906.17 159.859ZM960.994 170.48C979.009 170.48 994.016 166.371 1004.54 158.117C1015.1 149.835 1021.03 137.468 1021.03 121.24H1019.03C1019.03 136.932 1013.33 148.685 1003.31 156.543C993.253 164.429 978.74 168.48 960.994 168.48V170.48ZM1021.03 121.24C1021.03 108.29 1017.23 98.6648 1009.34 90.7443C1001.51 82.8776 989.699 76.7566 973.835 70.6273L973.114 72.4929C988.93 78.6035 1000.4 84.6025 1007.93 92.1558C1015.4 99.6553 1019.03 108.75 1019.03 121.24H1021.03ZM973.836 70.6277C959.864 65.2074 951.103 61.8285 945.806 58.5031C943.181 56.8551 941.492 55.2693 940.447 53.5291C939.409 51.8014 938.954 49.8327 938.954 47.3201H936.954C936.954 50.0874 937.459 52.4388 938.732 54.5585C939.997 56.6658 941.968 58.455 944.743 60.197C950.246 63.6516 959.245 67.1127 973.113 72.4924L973.836 70.6277ZM938.954 47.3201C938.954 41.7308 941.042 37.4386 945.358 34.4963C949.738 31.5099 956.522 29.8401 966.034 29.8401V27.8401C956.347 27.8401 949.091 29.5302 944.231 32.8438C939.306 36.2015 936.954 41.1493 936.954 47.3201H938.954ZM966.034 29.8401C977.678 29.8401 993.858 32.6996 1005.23 37.6762L1006.04 35.8439C994.37 30.7405 977.911 27.8401 966.034 27.8401V29.8401ZM1006.6 37.0125L1013.8 9.41248L1011.87 8.90764L1004.67 36.5076L1006.6 37.0125ZM1013.21 8.23158C999.854 2.89076 980.279 5.34058e-05 964.354 5.34058e-05V2.00005C980.11 2.00005 999.415 4.86935 1012.46 10.0885L1013.21 8.23158Z" fill="white" mask="url(#path-1-outside-1_58_272)"/>
</g>
</svg>
