<svg width="47" height="46" viewBox="0 0 47 46" fill="none" xmlns="http://www.w3.org/2000/svg">
<rect x="0.5" y="0.5" width="46" height="45" stroke="white" stroke-opacity="0.38"/>
<path d="M34.46 17C33.69 17.35 32.86 17.58 32 17.69C32.88 17.16 33.56 16.32 33.88 15.31C33.05 15.81 32.13 16.16 31.16 16.36C30.37 15.5 29.26 15 28 15C25.65 15 23.73 16.92 23.73 19.29C23.73 19.63 23.77 19.96 23.84 20.27C20.28 20.09 17.11 18.38 15 15.79C14.63 16.42 14.42 17.16 14.42 17.94C14.42 19.43 15.17 20.75 16.33 21.5C15.62 21.5 14.96 21.3 14.38 21V21.03C14.38 23.11 15.86 24.85 17.82 25.24C17.1908 25.4122 16.5301 25.4362 15.89 25.31C16.1616 26.1625 16.6936 26.9084 17.4111 27.4429C18.1285 27.9775 18.9955 28.2737 19.89 28.29C18.3737 29.4904 16.494 30.1393 14.56 30.13C14.22 30.13 13.88 30.11 13.54 30.07C15.44 31.29 17.7 32 20.12 32C28 32 32.33 25.46 32.33 19.79C32.33 19.6 32.33 19.42 32.32 19.23C33.16 18.63 33.88 17.87 34.46 17Z" fill="white"/>
</svg>
